<svg xmlns="http://www.w3.org/2000/svg" width="27" height="27" viewBox="0 0 27 27">
  <path id="facebook_1_" data-name="facebook (1)" d="M23.363,0H3.64A3.638,3.638,0,0,0,0,3.638V23.362A3.638,3.638,0,0,0,3.64,27h9.727l.017-9.648H10.878a.591.591,0,0,1-.591-.589l-.012-3.11a.591.591,0,0,1,.591-.594h2.5V10.054c0-3.487,2.13-5.386,5.241-5.386h2.553a.591.591,0,0,1,.591.591V7.881a.591.591,0,0,1-.591.591H19.6c-1.692,0-2.019.8-2.019,1.984v2.6h3.718a.591.591,0,0,1,.587.661l-.369,3.11a.591.591,0,0,1-.587.522H17.592L17.576,27h5.788A3.638,3.638,0,0,0,27,23.362V3.638A3.638,3.638,0,0,0,23.363,0Z" transform="translate(-0.002)" fill="#f9f9f9"/>
</svg>
