<svg id="github-sign" xmlns="http://www.w3.org/2000/svg" width="27" height="27" viewBox="0 0 27 27">
  <g id="Group_249" data-name="Group 249">
    <path id="Path_317" data-name="Path 317" d="M154.344,352.515q-.263.049-.23.246t.3.131q.263-.066.23-.23Q154.606,352.483,154.344,352.515Z" transform="translate(-144.608 -330.454)" fill="#f9f9f9"/>
    <path id="Path_318" data-name="Path 318" d="M137.593,354.813c-.175,0-.263.06-.263.18q0,.213.279.18.263,0,.263-.18Q137.872,354.78,137.593,354.813Z" transform="translate(-128.862 -332.62)" fill="#f9f9f9"/>
    <path id="Path_319" data-name="Path 319" d="M119.425,351.852q-.066.181.213.246.246.1.312-.1.049-.18-.213-.262C119.572,351.693,119.468,351.731,119.425,351.852Z" transform="translate(-112.049 -329.709)" fill="#f9f9f9"/>
    <path id="Path_320" data-name="Path 320" d="M25.515,1.485A4.876,4.876,0,0,0,21.937,0H5.062A4.877,4.877,0,0,0,1.485,1.485,4.877,4.877,0,0,0,0,5.062V21.938a4.876,4.876,0,0,0,1.485,3.577A4.876,4.876,0,0,0,5.062,27H9a4.754,4.754,0,0,0,.58-.026.68.68,0,0,0,.387-.229.819.819,0,0,0,.193-.589q0-.052-.009-1.2t-.009-1.811l-.4.07a5.173,5.173,0,0,1-.976.062,7.506,7.506,0,0,1-1.222-.123,2.739,2.739,0,0,1-1.178-.527,2.231,2.231,0,0,1-.773-1.081l-.176-.4a4.391,4.391,0,0,0-.554-.9,2.122,2.122,0,0,0-.765-.668l-.123-.088a1.293,1.293,0,0,1-.228-.211.977.977,0,0,1-.158-.246q-.053-.123.088-.2a1.143,1.143,0,0,1,.51-.079l.351.053a2.563,2.563,0,0,1,.87.422,2.837,2.837,0,0,1,.852.914,3.1,3.1,0,0,0,.976,1.1,2.068,2.068,0,0,0,1.151.378,4.994,4.994,0,0,0,1-.088,3.5,3.5,0,0,0,.791-.264,2.849,2.849,0,0,1,.861-1.811,12.037,12.037,0,0,1-1.8-.316,7.181,7.181,0,0,1-1.652-.686,4.731,4.731,0,0,1-1.415-1.178,5.662,5.662,0,0,1-.923-1.846,8.779,8.779,0,0,1-.36-2.637A5.127,5.127,0,0,1,6.275,9.175,4.726,4.726,0,0,1,6.4,5.589a2.463,2.463,0,0,1,1.512.237A10.6,10.6,0,0,1,9.378,6.5q.466.281.747.475a12.691,12.691,0,0,1,6.75,0l.668-.422a9.456,9.456,0,0,1,1.617-.773,2.3,2.3,0,0,1,1.424-.193,4.679,4.679,0,0,1,.14,3.586A5.128,5.128,0,0,1,22.114,12.8a8.863,8.863,0,0,1-.36,2.646,5.431,5.431,0,0,1-.932,1.846A4.916,4.916,0,0,1,19.4,18.456a7.171,7.171,0,0,1-1.652.685,12.028,12.028,0,0,1-1.8.317,3.131,3.131,0,0,1,.914,2.5v4.2a1.131,1.131,0,0,0,.088.483.486.486,0,0,0,.281.255,1.558,1.558,0,0,0,.343.088A3.946,3.946,0,0,0,18,27h3.937A5.071,5.071,0,0,0,27,21.937V5.062A4.877,4.877,0,0,0,25.515,1.485Z" fill="#f9f9f9"/>
    <path id="Path_321" data-name="Path 321" d="M85.97,318.547q-.115.082.033.262.164.164.263.049.115-.082-.033-.263Q86.068,318.448,85.97,318.547Z" transform="translate(-80.624 -298.876)" fill="#f9f9f9"/>
    <path id="Path_322" data-name="Path 322" d="M77.188,311.212q-.049.115.115.2a.14.14,0,0,0,.213-.033q.049-.115-.115-.2Q77.237,311.13,77.188,311.212Z" transform="translate(-72.742 -291.989)" fill="#f9f9f9"/>
    <path id="Path_323" data-name="Path 323" d="M94.434,329.669q-.148.082,0,.3t.279.115q.148-.115,0-.312C94.625,329.626,94.532,329.593,94.434,329.669Z" transform="translate(-88.544 -309.308)" fill="#f9f9f9"/>
    <path id="Path_324" data-name="Path 324" d="M104.649,342.138c-.1.088-.077.191.066.312s.241.147.328.049.066-.191-.066-.311S104.736,342.04,104.649,342.138Z" transform="translate(-98.14 -320.986)" fill="#f9f9f9"/>
  </g>
</svg>
