<svg xmlns="http://www.w3.org/2000/svg" xmlns:xlink="http://www.w3.org/1999/xlink" width="1074.36" height="542.013" viewBox="0 0 1074.36 542.013"><defs><clipPath id="a"><path d="M561,434.042a274.717,274.717,0,0,0,130.843-67.868c-5.053-6.9-9.967-13.453-10.879-15.047,5.32,3.453,10.487,6.99,15.786,10.354a256.876,256.876,0,0,0,36.381-44.661c-5.578-5.67-10.809-11.844-13.118-17.833,2.186.266,10.972,5.173,18.67,8.737a231.993,231.993,0,0,0,16.2-33.947,105,105,0,0,1-16.783-4.907c1.448-.257,11.267-1.708,19.646-3.076,6.531-19.528,10.006-40.319,5.342-60.351-.152-.656-.312-1.309-.481-1.963a369.177,369.177,0,0,0-53.9,24.488c-1.465,10.3-4.022,20.831-2.186,30.955q-2.44-13.464-4.882-26.925-2.326,1.358-4.635,2.747a362.934,362.934,0,0,0-45.485,32.5c1.366,4.77,2.782,8.649,4.151,9.311q-4.735-2.292-9.22-4.992a343.925,343.925,0,0,0-42.8,44.551C576.833,349.66,550,384.537,554.2,428.8c.167,1.768.582,3.8,2.04,4.857a3.43,3.43,0,0,0,.654.375A6.884,6.884,0,0,0,561,434.042Z" transform="translate(-553.763 -203.478)" fill="none"/></clipPath></defs><path d="M829.975,383.222c0,5.784-101.787,10.474-227.347,10.474s-227.349-4.69-227.349-10.474S477.066,372.75,602.628,372.75,829.975,377.44,829.975,383.222Z" transform="translate(-102.888 84.81)" fill="#d5d8e8"/><path d="M356.152,179.342c2.65.54,5.226,1.7,7.928,1.57,6.729-.318,10.335-7.778,13.166-13.891,5.158-11.14,12.913-21.731,24.077-26.832s26.143-3.12,33.249,6.889c3.012,4.241,4.384,9.423,7,13.915s7.308,8.525,12.454,7.778c2.943-.428,5.422-2.329,7.863-4.03,5.7-3.971,12.066-7.205,18.931-8.265s14.288.257,19.728,4.576c4.726,3.754,7.814,9.56,13.234,12.213,7.3,3.573,16.008.207,24.107.919,10.934.959,19.692,9.163,27.192,17.176,2.614,2.795,4.469,5.77,7.011,8.634H343.831c-1.986,0-7.241.782-8.691-.81-3.084-3.39,2.447-11.783,4.754-14.216C343.989,180.655,350.216,178.128,356.152,179.342Z" transform="translate(-139.94 -127.54)" fill="#e2ecf9"/><path d="M265.674,615.955c-1.408-36.9,29.6-171.321,63.275-186.484s73.751-12.614,107.767-26.988c92.758-39.2,143.508-141.929,230.9-191.961C752,162.206,867.721,174.185,937.944,241.45c55.22,52.893,81.437,133.105,143.9,177.211,33.681,23.78,86.854,16.166,124.74,32.429s57.745,57.788,71.618,96.616Z" transform="translate(-203.845 -88.117)" fill="#e3eaf2"/><g transform="translate(157.197 135.509)"><g transform="translate(463.977 136.985)"><g transform="translate(28.314)"><path d="M638.652,297.034c3.455-3,7.738-6.162,12.471-5.331,8.961,1.573,8.293,13.567,5.242,21.379,9.391-14.224,19.684-29.2,36.154-36.175a13.239,13.239,0,0,1,6.832-1.355c4.635.63,7.566,5.4,7.4,9.682s-2.588,8.149-4.943,11.815c19.682-15.907,47.214-23.348,73.469-19.855,2.081.276,4.4.759,5.561,2.384,1.275,1.786.586,4.136-.266,6.088-5.434,12.45-16.073,22.844-29.263,28.588,8.341-3.352,16.908,7.721,13.575,15.5s-12.941,11.454-21.875,13.185-18.567,2.49-25.862,7.462c4.372-3.141,11.67.847,12.245,5.97s-3.834,9.747-9.018,11.6-10.985,1.577-16.583,1.271q-11.806-.642-23.615-1.29a9.852,9.852,0,0,0,3.2,6.83c-4.111,8.815-16.573,10.654-27.051,11.284-26.838,1.61-57.7,4.285-82.845-6.372C579.595,348.38,614.659,317.9,638.652,297.034Z" transform="translate(-573.484 -275.478)" fill="#73a7da"/><g transform="translate(32.006 21.629)"><path d="M657.376,300.48c1.832-.554,4.568-1.613,4.992.474.622,3.059-9.452,4.285-9.336,1.185.046-1.25,3.1-1.166,4.344-1.659" transform="translate(-533.693 -275.233)" fill="#f0f6f7"/><path d="M620.983,326.337c1.832-.554,4.568-1.613,4.992.472.622,3.061-9.452,4.287-9.336,1.187.048-1.252,3.1-1.168,4.344-1.659" transform="translate(-566.54 -251.895)" fill="#f0f6f7"/><path d="M636.556,320.15c1.87.51,4.8,1.077,3.864,2.993-1.379,2.81-10.529-1.461-8.51-3.915.814-.991,3.3.672,4.646.923" transform="translate(-553.017 -257.903)" fill="#f0f6f7"/><path d="M609.678,311.428c1.868.508,4.8,1.075,3.864,2.991-1.379,2.81-10.529-1.461-8.51-3.915.814-.991,3.3.672,4.646.925" transform="translate(-577.277 -265.777)" fill="#f0f6f7"/><path d="M636.113,295.306c-.6,1.684-1.288,4.342-3.35,3.362-3.025-1.436,1.847-9.57,4.469-7.568,1.06.809-.812,2.991-1.119,4.207" transform="translate(-552.852 -283.293)" fill="#f0f6f7"/><path d="M601.107,304.891c-.6,1.682-1.288,4.342-3.351,3.362-3.025-1.438,1.846-9.57,4.469-7.568,1.058.809-.812,2.991-1.119,4.207" transform="translate(-584.447 -274.642)" fill="#f0f6f7"/><path d="M665.252,290.456c-1.733.771-4.287,2.154-5.006.131-1.052-2.968,8.739-5.4,9.064-2.3.133,1.248-2.9,1.532-4.058,2.171" transform="translate(-527.253 -286.847)" fill="#f0f6f7"/><path d="M645.32,312.131c-1.857-.548-4.777-1.181-3.786-3.075,1.453-2.778,10.493,1.691,8.409,4.1-.841.97-3.29-.746-4.623-1.027" transform="translate(-544.251 -267.596)" fill="#f0f6f7"/><path d="M661.938,307.309c-1.733.771-4.286,2.154-5,.131-1.054-2.966,8.737-5.4,9.064-2.3.131,1.248-2.9,1.533-4.06,2.171" transform="translate(-530.242 -271.635)" fill="#f0f6f7"/><path d="M617.5,302.879c-.533,1.7-1.119,4.383-3.217,3.472-3.076-1.339,1.477-9.631,4.172-7.713,1.088.772-.7,3.018-.955,4.241" transform="translate(-569.592 -276.463)" fill="#f0f6f7"/><path d="M651.211,292.7c-.533,1.7-1.121,4.384-3.217,3.47-3.076-1.338,1.477-9.629,4.172-7.713,1.088.774-.7,3.017-.955,4.243" transform="translate(-539.168 -285.655)" fill="#f0f6f7"/><path d="M594.552,321.7c-.533,1.7-1.121,4.384-3.217,3.47-3.076-1.339,1.475-9.631,4.173-7.713,1.088.772-.7,3.017-.955,4.243" transform="translate(-590.306 -259.474)" fill="#f0f6f7"/><path d="M607.876,326.641c1.908.358,4.88.691,4.127,2.677-1.1,2.915-10.61-.616-8.836-3.227.717-1.054,3.352.407,4.709.55" transform="translate(-578.897 -251.769)" fill="#f0f6f7"/><path d="M627.307,313.9c1.564-1.024,3.826-2.78,4.9-.888,1.568,2.776-7.62,6.665-8.5,3.653-.354-1.216,2.574-1.956,3.6-2.764" transform="translate(-560.189 -263.984)" fill="#f0f6f7"/></g></g><path d="M743.153,293.138A1137.434,1137.434,0,0,1,558.6,374.269" transform="translate(-558.602 -259.539)" fill="none" stroke="#304965" stroke-miterlimit="10" stroke-width="0.871"/></g><g transform="translate(0 210.115)"><path d="M430.74,425.178c-4.576-.154-9.863-.761-12.762-4.595-5.487-7.256,3.173-15.582,10.731-19.22-16.566,4.013-34.307,7.968-51.112,1.847a13.233,13.233,0,0,1-5.923-3.661c-2.966-3.621-1.865-9.108,1.178-12.131s7.445-4.2,11.666-5.282c-25.245-1.764-50.467-15.076-67.307-35.519-1.336-1.621-2.7-3.554-2.447-5.534.284-2.177,2.388-3.427,4.344-4.275,12.46-5.413,27.328-5.772,40.9-.989-8.388-3.229-7.116-17.171.626-20.6s17.275.432,25,5.251,15.287,10.829,24.014,12.157c-5.339-.677-7.966-8.569-4.9-12.713s9.444-4.522,14.505-2.348,9.117,6.33,13.006,10.367q8.2,8.516,16.408,17.032a9.855,9.855,0,0,0,2.308-7.182c9.014-3.649,19.391,3.493,27.49,10.173,20.742,17.1,45.157,36.173,56.3,61.1C508.953,427.826,462.521,426.247,430.74,425.178Z" transform="translate(-314.732 -313.916)" fill="#73a7da"/><g transform="translate(37.065 16.492)"><path d="M351.651,332.336c-1.72-.843-4.444-1.931-3.333-3.748,1.629-2.664,9.838,3.3,7.643,5.493-.887.885-3.065-1.258-4.309-1.745" transform="translate(-321.718 -317.773)" fill="#f0f6f7"/><path d="M395.905,338.2c-1.718-.843-4.443-1.929-3.331-3.746,1.629-2.666,9.838,3.3,7.643,5.493-.887.883-3.065-1.258-4.311-1.747" transform="translate(-281.774 -312.477)" fill="#f0f6f7"/><path d="M379.446,332.71c-1.022-1.646-2.783-4.06-.789-4.823,2.924-1.117,6.712,8.244,3.562,8.664-1.271.171-1.962-2.743-2.772-3.841" transform="translate(-294.921 -317.882)" fill="#f0f6f7"/><path d="M393.179,357.408c-1.022-1.646-2.783-4.06-.79-4.823,2.924-1.117,6.712,8.244,3.562,8.664-1.271.171-1.961-2.743-2.772-3.841" transform="translate(-282.527 -295.591)" fill="#f0f6f7"/><path d="M362.512,350.408c1.587-.824,3.9-2.3,4.743-.177,1.237,3.113-7.871,5.748-8.426,2.494-.225-1.313,2.631-1.636,3.683-2.317" transform="translate(-312.009 -298.619)" fill="#f0f6f7"/><path d="M394.669,367.243c1.585-.826,3.9-2.3,4.743-.179,1.235,3.113-7.871,5.748-8.428,2.494-.224-1.311,2.633-1.636,3.685-2.315" transform="translate(-282.987 -283.426)" fill="#f0f6f7"/><path d="M338.925,334.136c1.792.616,4.6,1.345,3.752,3.314-1.25,2.888-10.072-2-8.2-4.49.753-1,3.168.852,4.452,1.176" transform="translate(-334.214 -313.486)" fill="#f0f6f7"/><path d="M367.414,332.768c.986,1.665,2.692,4.119.677,4.831-2.957,1.043-6.528-8.388-3.362-8.731,1.277-.139,1.9,2.783,2.685,3.9" transform="translate(-307.788 -316.917)" fill="#f0f6f7"/><path d="M352.832,324.056c1.792.616,4.6,1.343,3.752,3.312-1.25,2.89-10.072-2-8.2-4.49.755-1,3.168.854,4.452,1.178" transform="translate(-321.662 -322.584)" fill="#f0f6f7"/><path d="M381.231,357.585c1.551-.885,3.805-2.447,4.718-.35,1.341,3.076-7.641,6.044-8.308,2.8-.268-1.307,2.567-1.735,3.59-2.454" transform="translate(-295.035 -292.253)" fill="#f0f6f7"/><path d="M349.618,342.073c1.551-.883,3.805-2.447,4.718-.35,1.339,3.077-7.641,6.044-8.308,2.8-.27-1.307,2.565-1.735,3.59-2.454" transform="translate(-323.568 -306.253)" fill="#f0f6f7"/><path d="M410.855,359.442c1.551-.885,3.805-2.447,4.718-.35,1.341,3.076-7.641,6.044-8.308,2.8-.268-1.307,2.567-1.735,3.59-2.454" transform="translate(-268.297 -290.577)" fill="#f0f6f7"/><path d="M405.1,347.389c-1.153-1.56-3.1-3.83-1.2-4.772,2.793-1.379,7.346,7.681,4.267,8.383-1.24.284-2.175-2.582-3.071-3.611" transform="translate(-272.036 -304.632)" fill="#f0f6f7"/><path d="M382.561,342.86c-1.844-.316-4.7-.573-4.19-2.687.742-3.1,10.118.312,8.708,3.116-.567,1.13-3.217-.323-4.519-.43" transform="translate(-294.413 -307.819)" fill="#f0f6f7"/></g><path d="M344.98,335.152a1137.347,1137.347,0,0,1,190.369,66.342" transform="translate(-287.432 -294.749)" fill="none" stroke="#304965" stroke-miterlimit="10" stroke-width="0.871"/></g><g transform="translate(454.772)"><g clip-path="url(#a)"><path d="M762.6,203.478a369.244,369.244,0,0,0-53.9,24.488c-1.465,10.3-4.022,20.831-2.186,30.955L701.635,232q-2.326,1.358-4.635,2.747a362.934,362.934,0,0,0-45.485,32.5c1.366,4.77,2.782,8.649,4.151,9.311q-4.735-2.292-9.22-4.992a343.925,343.925,0,0,0-42.8,44.551C576.833,349.66,550,384.537,554.2,428.8c.167,1.768.582,3.8,2.04,4.857,69.365-72.937,150.582-149.15,206.847-228.216C762.934,204.785,762.774,204.133,762.6,203.478Z" transform="translate(-553.763 -203.478)" fill="#3d4a96"/><g transform="translate(2.476 1.963)"><path d="M555.065,432.726a3.429,3.429,0,0,0,.654.375,6.883,6.883,0,0,0,4.1.009,274.717,274.717,0,0,0,130.843-67.868c-5.053-6.9-9.967-13.453-10.879-15.047,5.32,3.453,10.487,6.99,15.786,10.352a256.8,256.8,0,0,0,36.381-44.659c-5.578-5.67-10.808-11.843-13.118-17.833,2.186.266,10.972,5.173,18.67,8.736a231.994,231.994,0,0,0,16.2-33.947,105,105,0,0,1-16.782-4.907c1.448-.257,11.267-1.709,19.646-3.076,6.532-19.528,10.006-40.319,5.342-60.351C705.647,283.577,624.431,359.79,555.065,432.726Z" transform="translate(-555.065 -204.51)" fill="#222c70"/></g><g transform="translate(-8.363 0.063)"><path d="M549.826,443.715l-.459-.455L608.424,383.9c52.14-52.41,106.053-106.6,150.628-166.2,3.6-4.812,6.714-9.2,8.356-14.186l.613.2c-1.671,5.076-4.815,9.513-8.451,14.372-44.6,59.634-98.532,113.844-150.687,166.269Z" transform="translate(-549.368 -203.511)" fill="#7c62e3"/></g><g transform="translate(128.919 100.923)"><path d="M669.638,284.986a147.87,147.87,0,0,1-48.114-27.977l.426-.485a147.172,147.172,0,0,0,47.9,27.852Z" transform="translate(-621.524 -256.524)" fill="#7c62e3"/></g><g transform="translate(109.372 120.056)"><path d="M661.495,297.116a102.411,102.411,0,0,1-50.245-30.1l.479-.432a101.747,101.747,0,0,0,49.925,29.91Z" transform="translate(-611.25 -266.58)" fill="#7c62e3"/></g><g transform="translate(138.22 12.007)"><path d="M627.762,286.245c-1.847-6.05-1.452-12.46-.839-19.041a551.369,551.369,0,0,1,8.411-57.416l.634.126a550.2,550.2,0,0,0-8.4,57.349c-.6,6.516-1,12.856.812,18.794Z" transform="translate(-626.413 -209.789)" fill="#7c62e3"/></g><g transform="translate(128.01 12.631)"><path d="M624.737,294.014c-6.609-26.682-3.233-53.78,1.5-83.9l.639.1c-4.72,30.045-8.092,57.077-1.509,83.641Z" transform="translate(-621.046 -210.117)" fill="#7c62e3"/></g><g transform="translate(183.267 13.558)"><path d="M650.236,234.917l-.146-.63a87.459,87.459,0,0,0,42.6-23.683l.462.451A88.116,88.116,0,0,1,650.236,234.917Z" transform="translate(-650.09 -210.604)" fill="#7c62e3"/></g><g transform="translate(174.885 29.134)"><path d="M645.863,237.828l-.179-.62a339.43,339.43,0,0,0,48.068-18.417l.276.586A340.222,340.222,0,0,1,645.863,237.828Z" transform="translate(-645.684 -218.791)" fill="#7c62e3"/></g><g transform="translate(61.511 77.819)"><path d="M615.391,307.262c-9.406-6.24-16.9-16.107-21.662-28.538-4.285-11.17-5.989-22.9-7.635-34.25l.637-.093c1.644,11.313,3.343,23.01,7.6,34.113,3.289,8.579,9.676,20.441,21.417,28.23Z" transform="translate(-586.094 -244.38)" fill="#7c62e3"/></g><g transform="translate(53.865 85.081)"><path d="M612.082,310.63c-18.234-16.436-29.172-39.181-30.007-62.408l.645-.025c.829,23.053,11.689,45.633,29.794,61.951Z" transform="translate(-582.075 -248.197)" fill="#7c62e3"/></g><g transform="translate(70.677 159.498)"><path d="M649.146,326.5c-13.531-4.515-23.986-9.186-32.9-14.7-11.111-6.87-19.634-14.994-25.333-24.147l.548-.342c5.647,9.068,14.1,17.123,25.123,23.942,8.872,5.485,19.284,10.137,32.766,14.635Z" transform="translate(-590.912 -287.311)" fill="#7c62e3"/></g><g transform="translate(26.139 109.822)"><path d="M597.09,326.914a64.233,64.233,0,0,1-23.624-29.486c-4.256-10.517-6.252-22.705-5.93-36.227l.645.017c-.318,13.432,1.661,25.532,5.885,35.968a63.562,63.562,0,0,0,23.379,29.187Z" transform="translate(-567.502 -261.201)" fill="#7c62e3"/></g></g></g></g><g transform="translate(183.173 176.751)"><g transform="translate(60.187)"><path d="M437.2,410.8l-.251-.1c-33.091-12.949-59.636-42.7-71.008-79.577s-6.181-76.415,13.875-105.746l.152-.221.251.1c33.091,12.949,59.636,42.7,71,79.579h0c11.372,36.879,6.185,76.409-13.874,105.745ZM380.227,225.979c-19.815,29.142-24.916,68.35-13.636,104.944s37.574,66.122,70.357,79.048c19.815-29.142,24.914-68.35,13.634-104.942h0C439.3,268.438,413.012,238.907,380.227,225.979Z" transform="translate(-360.02 -225.155)" fill="#a7a1e0"/><g transform="translate(5.067 18.846)"><g transform="translate(18.74 0)"><rect width="0.676" height="170.81" transform="translate(0 0.225) rotate(-19.462)" fill="#a7a1e0"/></g><g transform="translate(6.271 21.512)"><rect width="0.676" height="26.84" transform="translate(0 0.61) rotate(-64.461)" fill="#a7a1e0"/></g><g transform="translate(10.346 46.285)"><rect width="0.676" height="33.076" transform="translate(0 0.61) rotate(-64.461)" fill="#a7a1e0"/></g><g transform="translate(0 64.169)"><rect width="0.676" height="55.296" transform="translate(0 0.61) rotate(-64.465)" fill="#a7a1e0"/></g><g transform="translate(11.059 92.273)"><rect width="0.676" height="53.794" transform="matrix(0.431, -0.902, 0.902, 0.431, 0, 0.61)" fill="#a7a1e0"/></g><g transform="translate(42.275 130.013)"><rect width="0.676" height="29.955" transform="translate(0 0.61) rotate(-64.457)" fill="#a7a1e0"/></g><g transform="translate(29.571 5.571)"><rect width="26.834" height="0.676" transform="translate(0 24.21) rotate(-64.452)" fill="#a7a1e0"/></g><g transform="translate(39.27 19.491)"><rect width="41.843" height="0.676" transform="matrix(0.431, -0.902, 0.902, 0.431, 0, 37.75)" fill="#a7a1e0"/></g><g transform="translate(48.974 37.454)"><rect width="52.373" height="0.676" transform="translate(0 47.25) rotate(-64.447)" fill="#a7a1e0"/></g><g transform="translate(58.673 63.629)"><rect width="53.8" height="0.676" transform="translate(0 48.534) rotate(-64.438)" fill="#a7a1e0"/></g><g transform="translate(68.377 97.93)"><rect width="46.219" height="0.676" transform="matrix(0.432, -0.902, 0.902, 0.432, 0, 41.692)" fill="#a7a1e0"/></g></g></g><g transform="translate(0 106.276)"><path d="M431.331,310.25c31.042,25.291,47.393,61.209,46.993,95.412-33.415,7.3-71.9-1.461-102.938-26.75S327.993,317.7,328.392,283.5C361.809,276.2,400.29,284.958,431.331,310.25Z" transform="translate(-328.385 -281.014)" fill="#222c70"/><g transform="translate(11.949 4.806)"><g transform="translate(0 6.642)"><rect width="0.676" height="170.81" transform="translate(0 0.524) rotate(-50.827)" fill="#fff"/></g><g transform="translate(0.681 28.952)"><rect width="26.84" height="0.675" transform="translate(0 2.731) rotate(-5.841)" fill="#fff"/></g><g transform="translate(17.055 47.355)"><rect width="33.076" height="0.675" transform="translate(0 3.356) rotate(-5.823)" fill="#fff"/></g><g transform="translate(17.528 65.754)"><rect width="55.296" height="0.675" transform="translate(0 5.61) rotate(-5.823)" fill="#fff"/></g><g transform="translate(41.6 84.142)"><rect width="53.794" height="0.675" transform="matrix(0.995, -0.102, 0.102, 0.995, 0, 5.473)" fill="#fff"/></g><g transform="translate(87.898 102.548)"><rect width="29.954" height="0.675" transform="translate(0 3.038) rotate(-5.821)" fill="#fff"/></g><g transform="translate(21.91 0)"><rect width="0.676" height="26.834" transform="translate(0 0.069) rotate(-5.824)" fill="#fff"/></g><g transform="translate(42.963 3.468)"><rect width="0.676" height="41.844" transform="translate(0 0.069) rotate(-5.827)" fill="#fff"/></g><g transform="translate(64.474 11.391)"><rect width="0.675" height="52.372" transform="matrix(0.995, -0.102, 0.102, 0.995, 0, 0.069)" fill="#fff"/></g><g transform="translate(86.911 28.37)"><rect width="0.675" height="53.8" transform="translate(0 0.069) rotate(-5.825)" fill="#fff"/></g><g transform="translate(110.257 54.308)"><rect width="0.675" height="46.218" transform="translate(0 0.069) rotate(-5.829)" fill="#fff"/></g></g></g></g><g transform="translate(548.924 62.674)"><g transform="translate(62.205 12.666)"><path d="M561.5,316.74q-3.2,0-6.387-.192l-.268-.015-.044-.265c-5.892-35.041,5.993-73.1,31.794-101.8s62.372-44.571,97.853-42.422l.268.015.046.264c5.89,35.045-6,73.1-31.8,101.8h0C628.715,301.108,594.933,316.74,561.5,316.74Zm-6.077-.85c35.18,2.03,71.441-13.736,97.038-42.214h0c25.6-28.476,37.429-66.2,31.678-100.971-35.184-2.034-71.441,13.737-97.042,42.214S549.673,281.124,555.426,315.889Z" transform="translate(-553.322 -171.852)" fill="#a7a1e0"/><g transform="translate(8.078 13.314)"><path d="M558.087,310.846l-.52-.432L666.505,178.85l.52.431Z" transform="translate(-557.568 -178.85)" fill="#a7a1e0"/><g transform="translate(83.745 0.488)"><rect width="0.676" height="26.839" transform="translate(0 0.063) rotate(-5.373)" fill="#a7a1e0"/></g><g transform="translate(64.584 16.711)"><rect width="0.676" height="33.077" transform="translate(0 0.063) rotate(-5.372)" fill="#a7a1e0"/></g><g transform="translate(43.925 17.022)"><rect width="0.676" height="55.296" transform="translate(0 0.063) rotate(-5.377)" fill="#a7a1e0"/></g><g transform="translate(25.495 40.947)"><rect width="0.676" height="53.794" transform="translate(0 0.063) rotate(-5.373)" fill="#a7a1e0"/></g><g transform="translate(9.153 87.118)"><rect width="0.676" height="29.954" transform="matrix(0.996, -0.094, 0.094, 0.996, 0, 0.063)" fill="#a7a1e0"/></g><g transform="translate(89.144 21.964)"><rect width="26.834" height="0.676" transform="translate(0 2.515) rotate(-5.378)" fill="#a7a1e0"/></g><g transform="translate(70.567 42.99)"><rect width="41.844" height="0.676" transform="translate(0 3.921) rotate(-5.377)" fill="#a7a1e0"/></g><g transform="translate(51.991 64.437)"><rect width="52.373" height="0.676" transform="translate(0 4.909) rotate(-5.378)" fill="#a7a1e0"/></g><g transform="translate(33.415 86.737)"><rect width="53.8" height="0.676" transform="translate(0 5.043) rotate(-5.378)" fill="#a7a1e0"/></g><g transform="translate(14.842 109.881)"><rect width="46.218" height="0.676" transform="translate(0 4.331) rotate(-5.377)" fill="#a7a1e0"/></g></g></g><path d="M609.681,267.254c-5.752,39.625-28.166,72.105-57.716,89.333-23.43-24.918-35.683-62.436-29.931-102.057s28.169-72.109,57.718-89.335C603.182,190.113,615.436,227.63,609.681,267.254Z" transform="translate(-520.626 -165.195)" fill="#ffe6b3"/><g transform="translate(7.217 15.126)"><g transform="translate(25.302 0)"><rect width="170.811" height="0.676" transform="translate(0 169.021) rotate(-81.699)" fill="#edb2bb"/></g><g transform="translate(28.679 13.17)"><rect width="0.675" height="26.839" transform="translate(0 0.404) rotate(-36.738)" fill="#edb2bb"/></g><g transform="translate(20.763 36.995)"><rect width="0.675" height="33.076" transform="translate(0 0.404) rotate(-36.737)" fill="#edb2bb"/></g><g transform="translate(3.284 48.014)"><rect width="0.675" height="55.295" transform="translate(0 0.404) rotate(-36.743)" fill="#edb2bb"/></g><g transform="translate(0 78.035)"><rect width="0.675" height="53.794" transform="matrix(0.801, -0.598, 0.598, 0.801, 0, 0.404)" fill="#edb2bb"/></g><g transform="translate(10.077 125.965)"><rect width="0.675" height="29.954" transform="matrix(0.801, -0.598, 0.598, 0.801, 0, 0.404)" fill="#edb2bb"/></g><g transform="translate(45.742 15.146)"><rect width="26.834" height="0.675" transform="translate(0 16.047) rotate(-36.728)" fill="#edb2bb"/></g><g transform="translate(41.556 34.989)"><rect width="41.843" height="0.675" transform="matrix(0.801, -0.598, 0.598, 0.801, 0, 25.028)" fill="#edb2bb"/></g><g transform="translate(37.372 57.514)"><rect width="52.373" height="0.675" transform="matrix(0.801, -0.598, 0.598, 0.801, 0, 31.329)" fill="#edb2bb"/></g><g transform="translate(33.189 85.48)"><rect width="53.8" height="0.675" transform="translate(0 32.19) rotate(-36.75)" fill="#edb2bb"/></g><g transform="translate(29.006 118.837)"><rect width="46.218" height="0.675" transform="translate(0 27.654) rotate(-36.75)" fill="#edb2bb"/></g></g></g><g transform="translate(298.684 142.275)"><path d="M580.039,330.29l-167.4-31.038a71.55,71.55,0,0,1-14.659-5.481l-.249,124.1a31.49,31.49,0,0,0,31.335,31.461l301.471.607A31.494,31.494,0,0,0,762,418.6l.251-124.648a81.278,81.278,0,0,1-14.684,5.972L580.039,330.29Z" transform="translate(-381.311 -128.749)" fill="#cadef9"/><path d="M753.185,234.606l-330.112-.664-2.407-.006A31.493,31.493,0,0,0,389.2,265.273l-.1,51.634c-.025,12.331,6.136,20.462,16.676,25.983a71.706,71.706,0,0,0,14.659,5.481l167.4,31.037,167.527-30.363a81.482,81.482,0,0,0,14.682-5.974l.162-80.52A31.48,31.48,0,0,0,753.185,234.606Z" transform="translate(-389.099 -182.753)" fill="#e2ecf9"/><path d="M536.724,366.409l-58.613-.118.149-73.821,58.613.118-.149,73.82Z" transform="translate(-308.76 -129.922)" fill="#a9ccf9"/><path d="M519.869,345.436l-35.895-.073.091-45.209,35.9.072-.092,45.209Z" transform="translate(-303.468 -122.986)" fill="#73a7da"/><path d="M477.638,237.17l-22.794-.046.014-6.512,22.793.045-.012,6.512Z" transform="translate(-329.76 -185.752)" fill="#cadef9"/><path d="M543.164,237.3l-22.8-.046.013-6.513,22.795.047-.013,6.512Z" transform="translate(-270.619 -185.634)" fill="#cadef9"/><path d="M527.216,207.034c-39.178-.078-70.981,20.007-71.03,44.864l17.6.036c.038-18.691,23.949-33.8,53.411-33.734s53.314,15.259,53.276,33.948l17.6.036c.049-24.857-31.67-45.07-70.849-45.15Z" transform="translate(-328.549 -207.034)" fill="#cadef9"/></g><path d="M232.4,339.384c-1.779,11.509,4.694,23.491,14.688,29.467s22.835,6.259,33.673,2a45.954,45.954,0,0,0,28.339-38,26.144,26.144,0,0,0-1.488-12.26c-3.434-8.253-12.61-12.945-21.524-13.628C262.3,305.132,236.639,311.973,232.4,339.384Z" transform="translate(-232.109 25.181)" fill="#f7f8f9"/><g transform="translate(331.907 62.995)"><g transform="translate(39.932 32.802)"><path d="M431.728,182.624c1.92-.287,6.547,2.724,7.462,8.263a176.421,176.421,0,0,1,1.979,38.067s-.424,6-3.668,4.676c-3.259-1.328-7.036-14.243-9.747-40.441C426.97,185.622,428.475,183.113,431.728,182.624Z" transform="translate(-427.55 -182.605)" fill="#73a7da"/><g transform="translate(8.21 44.425)"><path d="M445.888,215.737s2.833,1.484,3.567,2.907c.514,1,2.14,6.067,2.14,6.067a6.284,6.284,0,0,1-2.336-3.094A21.166,21.166,0,0,0,445.888,215.737Z" transform="translate(-419.208 -197.126)" fill="#f89a7a"/><path d="M447.913,218.278c1.872.744,3.042,2.747,3.86,5.439a4.631,4.631,0,0,0,2.407,3.145,31.773,31.773,0,0,0-1.95-5.546c-.457-1.079-.976-2.15-1.5-3.181C448.98,214.729,443.115,216.356,447.913,218.278Z" transform="translate(-419.047 -196.748)" fill="#f89a7a"/><path d="M444.431,215.534c.156,1.4,2.1,3.223,1.931,4.089a9.472,9.472,0,0,1-1.492,3.695c2.96.019,3.426-4.159,4.715-5.441S444.039,211.911,444.431,215.534Z" transform="translate(-420.538 -198.527)" fill="#f89a7a"/><path d="M438.957,212.329c4.914,1.939,10.588,4.051,12.793,6.195,3.132,3.04,3.415,5.987,6.233,7.119a8.307,8.307,0,0,1,.877.47c.774.432,1.72.771,2.019.993.337.247,1.214,1.06,1,.6-1.922-4.129-4.475-8.558-5.377-9.2-1.836-1.313-12.336-8.151-16.762-9.886C434.752,206.66,432.326,209.713,438.957,212.329Z" transform="translate(-429.117 -204.114)" fill="#f89a7a"/><path d="M447.109,217.415s.417-1.006,1.216-.725a15.156,15.156,0,0,1,4.066,3.094c.774.8,3.832,5.165,3.832,5.165a6.23,6.23,0,0,1-3.151-2.27C451.277,220.125,447.109,217.415,447.109,217.415Z" transform="translate(-418.106 -196.31)" fill="#f89a7a"/><path d="M435.877,205.955c-3.5.93-3.758,1.575-4.013,3.466,8.251,6.452,25.641,9.766,25.641,9.766Z" transform="translate(-431.865 -205.955)" fill="#f89a7a"/></g><path d="M446.026,219.679c.417-2.281,2.057-4.429,3.017-5.879-4.566-3.411-8.862-5.668-13.86-8.672a2.716,2.716,0,0,0-3.919,2.66c.5,3.543,1.136,4.99,4.928,7.207A76.737,76.737,0,0,0,446.026,219.679Z" transform="translate(-424.218 -162.579)" fill="#73a7da"/></g><g transform="translate(2.767 75.465)"><path d="M408.711,241.455c-.015-.051-.029-.112-.044-.162.034-.042.063-.087.1-.127a87.7,87.7,0,0,1,7.85-23.649c2.665-5.146,8.04-10.025,10.407-12.488,6.109,3.331,12.146,1.785,17.859,6.105a53.421,53.421,0,0,1,1.769,7.684c.866,4.987,1.617,9.625,2.258,13.959,8.858.833,30.717,2.508,38.938,4.127,4.876,1.121,5.16,3.017,5.919,3.632-.43,7.953-6.883,12.447-10.793,18.816-.691,1.128-53,.148-61.987.607C422.2,260.571,404.32,258.169,408.711,241.455Z" transform="translate(-408.015 -205.029)" fill="#222c70"/><path d="M482.628,235.808c1.435-1.661,2.236-3.739,3.3-5.584.833-3.556.824-5.942-.2-6.79-3.866-3.194-17.056,3.459-50.233,53.2-7.222,10.828-21.508,31.529-18.457,29.239,3.39-2.54,6.124-5.58,9.319-8.893C471.7,249.98,475.878,243.639,482.628,235.808Z" transform="translate(-400.249 -189.026)" fill="#f89a7a"/><path d="M416.521,270.583l5.879-9.414a2.677,2.677,0,0,1,2.376-1.355l-4.528,7.247a3.3,3.3,0,0,0,.481,4.218,2.142,2.142,0,0,0,1.279.485l-1.353,2.167a2.445,2.445,0,0,1-3.649.864A3.293,3.293,0,0,1,416.521,270.583Z" transform="translate(-400.822 -155.585)" fill="#222c70"/><path d="M437.4,209.286c-.013.245-1.189.371-2.626.284l-16.242-1.018c-1.436-.086-2.587-.358-2.572-.605l.053-.925c.015-.243,1.191-.369,2.628-.278l16.242,1.008c1.435.091,2.586.363,2.572.609Z" transform="translate(-400.842 -203.508)" fill="#222c70"/><path d="M474.017,237.957c1.14-1.811,1.49-3.98,2.2-5.945.165-3.579-.457-5.662-1.436-6.556-4.454-4.047-14.254,3.453-30.118,36.088-8,16.448-14.391,31.754-25.2,40.559-1.577,1.284-1.988,1.459-2.5,2.953-1.573,4.633-.877,10.405-.681,10.222C423.849,308.344,452.883,271.366,474.017,237.957Z" transform="translate(-400.849 -187.495)" fill="#f8b791"/><path d="M414.682,275.812l5.1-9.863a2.7,2.7,0,0,1,2.258-1.545l-3.931,7.6a3.288,3.288,0,0,0,.824,4.157,2.128,2.128,0,0,0,1.313.383l-1.17,2.268a2.452,2.452,0,0,1-3.571,1.161A3.294,3.294,0,0,1,414.682,275.812Z" transform="translate(-402.354 -151.439)" fill="#222c70"/></g><path d="M448.825,184.8a6.25,6.25,0,0,0-1.552-6.358,16.408,16.408,0,0,0-2.947-2.236,15.713,15.713,0,1,0,2.331,25.694,6.387,6.387,0,0,0,2.013-6.608A18.931,18.931,0,0,1,448.825,184.8Z" transform="translate(-394.121 -157.647)" fill="#222c70"/><path d="M438.873,171.813a19.753,19.753,0,0,0-3.116-1.486,18.512,18.512,0,0,1-1.465,3.115,19.206,19.206,0,0,1-23.4,7.936,19.455,19.455,0,1,0,27.983-9.564Z" transform="translate(-403.695 -160.885)" fill="#151852"/><path d="M450.662,183.284c-1.748,8.086-9.313,13.308-16.889,11.67s-12.3-9.53-10.544-17.62,9.315-13.312,16.895-11.668S452.418,175.2,450.662,183.284Z" transform="translate(-391.848 -165.364)" fill="#222c70"/><path d="M439.6,169.376c-.205-.108-.426-.215-.647-.306-1.054,2.593-3.891,5.312-7.747,7.1a20.617,20.617,0,0,1-2.8,1.048l-.55,2.527a7.249,7.249,0,0,0,14.155,3.067l1.237-5.694A15.491,15.491,0,0,1,439.6,169.376Z" transform="translate(-387.471 -162.019)" fill="#f8b791"/><g transform="translate(22.327 15.788)"><path d="M418.3,192.68s3.744,14.031,10.985,17.427,11.235,2.548,12.989-.264,3.347-8.735,1.931-10.639a20.073,20.073,0,0,1-3.695-6.958c-.744-2.576.544-6.718,2.121-9.8s4.239-2.726,1.956-4.819-.862-3.377-3.567-3.508-4.024-1.44-4.566,1.065c-.991,4.568-2.005,11.069-5.194,13.461C427.717,191.3,424.729,191.688,418.3,192.68Z" transform="translate(-418.296 -173.662)" fill="#f8b791"/><path d="M427.985,174.7c-1.246,4.867.4,8.4,1.583,9.566a9.045,9.045,0,0,0,2.955,1.646,24.038,24.038,0,0,1,1.052-2.926C429.684,182.135,427.039,178.395,427.985,174.7Z" transform="translate(-409.952 -172.723)" fill="#f89a7a"/></g><g transform="translate(11.898 33.161)"><path d="M448.139,203.925c.426-8.537-.46-12.079-2.14-16.459-.441-1.155-1.573-2.317-1.96-3.272,2.753,17.136-9.893,9.675-14.45,1.326-2.867,2.7-13.19,4.541-13.213,5.086-.236,5.927.072,11.855-.108,17.783a9.191,9.191,0,0,0,2.924,6.533,6.275,6.275,0,0,0-.245,1.455l-.323,2.875c-.088,2.371-4.909,10.46-3.272,10.573l23.8,1.279c1.63.116,3.771-4.753,3.86-7.125l2.45-11.615c.01-.2-.006-.4-.015-.6A13.248,13.248,0,0,0,448.139,203.925Z" transform="translate(-410.831 -181.53)" fill="#ff9717"/><path d="M430.99,182.88s-9.452-.934-11.893,3.366c-3.238,5.7-2.439,11.79-1.857,15.854.672,4.724.388,10.845,1.431,16.942,1.275,7.4-6.988,18.556-5.725,17.361.251-.238,11.168-3.586,15.97-5.727s2.289-11.657,1.937-14.366c-.8-6.115,4.6-18.09,3.756-22.983A41.788,41.788,0,0,0,430.99,182.88Z" transform="translate(-412.815 -182.794)" fill="#5d9cd9"/><path d="M439.2,193.623c-.244-1.868-1.263-3.914-2.694-6.412a10.026,10.026,0,0,0-2.439-2.447c-1.545-1.191-1.374-1.031-.774.367,1.1,2.6,2.492,7.667,1.357,17.764-.333,2.957-2.964,9.812-4.385,14.334s-3.1,14.026-3.1,14.026,1.362,4.132,1.857,4.089c.765-.07,2.327-9.216,4.536-15.584C438.865,204.458,440.287,201.872,439.2,193.623Z" transform="translate(-399.866 -181.735)" fill="#5d9cd9"/><g transform="translate(6.105 0.816)"><path d="M420.96,183.741c1.807-.822,4.861-1.14,5.66,2.774,3.518,17.129,5.59,50.96,5.59,50.96s-1.577,1.63-4.954.755c-5.788-1.488-5.8-13.563-10.848-41.333C414.948,188.876,417.912,185.128,420.96,183.741Z" transform="translate(-416.023 -183.223)" fill="#73a7da"/><g transform="translate(26.588 60.35)"><path d="M434.408,214.943s8.485,7.2,9.226,7.473,1.24-.036,2.979-.12,2.059-.019,3.428-.006a12.459,12.459,0,0,1,1.535.055s-.107.763-.647.89c-.479.11-1.651.1-2.053.2s.976.029,2.974.491a28.864,28.864,0,0,1,4.7,1.513c.508.223.576.266.573.295-.04.245-.089.468-.339.478-.221.009-.984-.156-.942-.114a10.817,10.817,0,0,0,1.5.82c.211.08.5.192.672.28.352.188.116.611-.556.7,0,0-.2.3-.4.331-.1.021-.181.038-.289.053s-.253,0-.371,0a8.031,8.031,0,0,1-1.319,0,11.9,11.9,0,0,0-1.676-.253c0,.011,1.147.445,1.113.529-.08.194-.339.415-.55.363-.377-.089-.949-.211-2.5-.645a12.676,12.676,0,0,0-4.326-.75,4.491,4.491,0,0,1-3.676-1.471c-3.816-3.474-12.169-6.619-13.3-7.616S434.408,214.943,434.408,214.943Z" transform="translate(-429.998 -214.943)" fill="#f8b791"/></g><path d="M441.751,228.2c2.024-1.14,2.087-3.725,3.341-6.545-5.879-4.467-10.118-8.769-16.625-12.934-2.42-1.551-7.77.107-8.472,1.9-1.189,3.031,8.771,9.772,13.8,12.726C436.694,225.035,439.6,227.566,441.751,228.2Z" transform="translate(-412.527 -160.766)" fill="#73a7da"/></g></g><g transform="translate(38.628 78.991)"><rect width="53.724" height="1.103" transform="translate(0.132 27.689)" fill="#a9ccf9"/><path d="M438.708,236.76a1.466,1.466,0,0,0,1.359,1.553h27.545c.75,0,1.771-.547,2.688-2.715l13.616-24.871a1.418,1.418,0,0,0-1.586-1.56l-28.271.852a2.623,2.623,0,0,0-1.78,1.882Z" transform="translate(-414.863 -209.141)" fill="#a9ccf9"/><path d="M455.165,222.08H427.992a10,10,0,0,0,4.4.848h45.271a10,10,0,0,0,4.4-.848Z" transform="translate(-427.992 -193.288)" fill="#a9ccf9"/></g><path d="M437.373,174c-1.754,3.078-3.073,6.714-6.128,8.5-4.6,2.694-10.734-.15-15.694,1.807a11.862,11.862,0,0,0-4.448,3.345,18.329,18.329,0,0,0-3.75,17.292A16.564,16.564,0,0,0,420.765,216.2a15.122,15.122,0,0,0,15.169-8.328c2.506-5.458,1.307-11.849,2.388-17.755.818-4.469,4.153-7.656,7.323-10.909,2.165-2.224,8.118-1.134,11.349-7.508,1.745-3.442-4.273-6.2-7.5-6.2C443.035,165.48,438.661,171.735,437.373,174Z" transform="translate(-406.561 -165.246)" fill="#222c70"/><g transform="translate(42.712 10.766)"><g transform="translate(0 5.41)"><path d="M431.555,177.361a1.184,1.184,0,0,1-1.109-.188c-.9-.567-2.517-3.44-.377-3.3C431.317,173.953,433.073,176.628,431.555,177.361Z" transform="translate(-429.011 -173.866)" fill="#ff907e"/></g><g transform="translate(5.064 10.404)"><path d="M433.953,178.7a2.062,2.062,0,0,1-1.343-.542,3.575,3.575,0,0,1-.93-1.5.122.122,0,0,1,.072-.156.125.125,0,0,1,.156.074,3.33,3.33,0,0,0,.866,1.4,1.708,1.708,0,0,0,1.484.445.122.122,0,0,1,.145.091.12.12,0,0,1-.089.145A1.5,1.5,0,0,1,433.953,178.7Z" transform="translate(-431.672 -176.491)" fill="#ff907e"/></g><g transform="translate(10.1 8.736)"><path d="M436.208,175.625a1.508,1.508,0,0,0-1.412.9,4.18,4.18,0,0,0-.478,1.792.648.648,0,0,0,.087.39c.013.017.032.025.046.04.327.325.986-.443,1.1-.685A7.3,7.3,0,0,0,436.208,175.625Z" transform="translate(-434.319 -175.614)" fill="#ff907e"/></g><g transform="translate(3.587)"><g transform="translate(3.605 7.893)"><path d="M433.406,175.816a1.47,1.47,0,0,1-.556-.1.1.1,0,0,1-.053-.122.1.1,0,0,1,.124-.051,1.4,1.4,0,0,0,1.492-.337.094.094,0,1,1,.137.127A1.566,1.566,0,0,1,433.406,175.816Z" transform="translate(-432.791 -175.171)" fill="#18236b"/></g><g transform="translate(7.384 1.595)"><path d="M436.075,171.943c-.44-.11-1.18-.167-1.3.215,0,.28.31.39.55.46a5,5,0,0,0,.738.1,2.824,2.824,0,0,1,.723.194,1.009,1.009,0,0,0,.312.1c.567.036.137-.432.009-.567A2.351,2.351,0,0,0,436.075,171.943Z" transform="translate(-434.777 -171.861)" fill="#151852"/></g><path d="M433.27,171.689a1.969,1.969,0,0,0-1.412-.291c-.329.1-.618.367-.963.354a1.248,1.248,0,0,1,.913-.681,3.651,3.651,0,0,1,1.178,0c.514.057,1.729-.084,1.746.624C434.752,172.522,433.668,171.891,433.27,171.689Z" transform="translate(-430.896 -171.023)" fill="#151852"/><g transform="translate(0.408 3.444)"><path d="M433.273,173.539a.1.1,0,0,1-.084-.051,1.055,1.055,0,0,0-.959-.468,2.028,2.028,0,0,0-.98.255.094.094,0,0,1-.091-.164,2.214,2.214,0,0,1,1.071-.278,1.236,1.236,0,0,1,1.126.569.091.091,0,0,1-.042.126A.082.082,0,0,1,433.273,173.539Z" transform="translate(-431.11 -172.833)" fill="#18236b"/><g transform="translate(0.713 0.752)"><path d="M432.307,173.926c-.053.358-.276.63-.5.6s-.363-.335-.31-.694.276-.632.5-.607S432.358,173.566,432.307,173.926Z" transform="translate(-431.485 -173.228)" fill="#151852"/></g><g transform="translate(6.587 1.312)"><path d="M436.526,174.454a.094.094,0,0,1-.086-.055,1.147,1.147,0,0,0-1.72-.476.094.094,0,0,1-.131-.021.1.1,0,0,1,.023-.131,1.353,1.353,0,0,1,1.132-.2,1.334,1.334,0,0,1,.868.753.093.093,0,0,1-.048.124A.091.091,0,0,1,436.526,174.454Z" transform="translate(-434.572 -173.523)" fill="#18236b"/><g transform="translate(0.126 0.745)"><path d="M435.46,174.61c-.051.36-.276.632-.5.607s-.364-.337-.312-.7.276-.63.5-.6S435.513,174.251,435.46,174.61Z" transform="translate(-434.638 -173.914)" fill="#151852"/></g></g></g></g></g></g><path d="M676.683,416.758c0,4.1-26.769,7.431-59.792,7.431s-59.794-3.328-59.794-7.431,26.771-7.431,59.794-7.431S676.683,412.654,676.683,416.758Z" transform="translate(61.215 117.823)" fill="#d5d8e8"/><g transform="translate(604.415 221.374)"><g transform="translate(22.521 107.366)"><g transform="translate(0 154.005)"><path d="M585.805,410.075l-.649,8.539-6.958-.223s-.35-1.077-.94-1.1c-.495-.015-1.17,1.029-1.846,1.008l-3.734-.12-13.957-.445s-.264-1.592.137-2.127a6.486,6.486,0,0,1,2.169-.938c3.628-1,14.022-4.155,15.932-7.888C578.279,402.246,585.805,410.075,585.805,410.075Z" transform="translate(-557.636 -405.37)" fill="#73a7da"/><path d="M557.716,410.927a5.532,5.532,0,0,0,0,1.8l13.957.445,3.735.12c.676.021,1.351-1.024,1.845-1.008.59.019.94,1.1.94,1.1l6.958.223.369-1.785Z" transform="translate(-557.635 -400.354)" fill="#1b92cc"/><g transform="translate(10.999 4.048)"><path d="M565.491,410.214c-.16.219-.554-.048-1.062-.506-1.235-1.111-1.122-.989-.789-1.159.232-.114.506-.228,1.22.44C565.359,409.457,565.652,410,565.491,410.214Z" transform="translate(-563.417 -406.626)" fill="#1b92cc"/><path d="M566.495,409.765c-.16.221-.554-.046-1.062-.506-1.235-1.109-1.122-.989-.79-1.155.232-.116.508-.232,1.218.434C566.363,409.01,566.656,409.552,566.495,409.765Z" transform="translate(-562.511 -407.03)" fill="#1b92cc"/><path d="M567.421,409.251c-.16.219-.554-.048-1.064-.506-1.233-1.111-1.12-.991-.788-1.159.232-.116.508-.23,1.218.438C567.289,408.492,567.58,409.032,567.421,409.251Z" transform="translate(-561.675 -407.497)" fill="#1b92cc"/></g></g><path d="M573.157,482.244l11.436.89,3.2-51.91a32.372,32.372,0,0,0-1.379-9.64l-4.186-13.873,9.125-71.828-32.54-11.459S560.454,421.462,573.157,482.244Z" transform="translate(-556.577 -324.424)" fill="#343b6b"/><g transform="translate(2.233)"><g transform="translate(58.995 157.982)"><path d="M611.4,418.485c.495.907.069,2.979.069,2.979s-10.744.976-14.159-.027a17.451,17.451,0,0,1-3.769-2.11c-.236-.158-.63-1.079-.858-1.239-.422-.295-.664.169-1.022-.1a12.631,12.631,0,0,1-1.6-1.3c-.765-5.451.556-7.6.556-7.6s6.963-3.124,8.6-.738C603.058,413.976,609.971,415.86,611.4,418.485Z" transform="translate(-589.812 -407.46)" fill="#73a7da"/><path d="M611.876,416.372c-3.347.308-10.373.908-11.655.639-5.247-1.09-8.314-3.858-10.4-5.571a18.642,18.642,0,0,0,.236,2.235,12.685,12.685,0,0,0,1.617,1.151c.363.236.6-.173,1.033.089.23.143.632.953.871,1.094a18.584,18.584,0,0,0,3.813,1.872c3.449.9,14.29.084,14.29.084A6.515,6.515,0,0,0,611.876,416.372Z" transform="translate(-589.818 -403.867)" fill="#1b92cc"/><g transform="translate(6.513 3.258)"><path d="M601.109,411.376c.038.232-.411.346-1.008.293a17.14,17.14,0,0,0-3.689.082c-.615.078-1.13-.025-1.147-.274s.468-.552,1.073-.624a16.894,16.894,0,0,1,3.64-.044C600.567,410.866,601.069,411.142,601.109,411.376Z" transform="translate(-591.415 -407.766)" fill="#1b92cc"/><path d="M600.028,410.413c.028.24-.426.405-1.022.407a17.382,17.382,0,0,0-3.653.424c-.6.135-1.109.072-1.119-.185s.472-.611,1.069-.738a17.3,17.3,0,0,1,3.611-.382C599.5,409.943,599.994,410.175,600.028,410.413Z" transform="translate(-592.344 -408.481)" fill="#1b92cc"/><path d="M598.97,409.567c.025.245-.434.458-1.028.519a17.824,17.824,0,0,0-3.609.751c-.594.188-1.088.164-1.092-.1s.474-.666,1.064-.847a17.783,17.783,0,0,1,3.571-.708C598.46,409.129,598.945,409.324,598.97,409.567Z" transform="translate(-593.241 -409.173)" fill="#1b92cc"/></g></g><path d="M588.625,335.409l-2.352-1.79-27.464-9.195s-.008,4.378.63,19.779l28.906,23.316Z" transform="translate(-558.81 -324.424)" fill="#282e53"/><path d="M597.946,338.58,625.68,482.926l-10.495-.346s-19.307-35.743-21.124-60.214a56.761,56.761,0,0,0-6.279-22.2c-14.882-28.348-25.176-74.124-25.176-74.124Z" transform="translate(-555.384 -322.962)" fill="#282e53"/></g></g><g transform="translate(0 21.198)"><g transform="translate(3.431 56.017)"><g transform="translate(0 18.152)"><path d="M560.591,325.748c-.577.179-2.5.986-5.173,4.3-2.4,2.97-5.573,10.6-7.816,7.216.419-4.119.415-9,.415-9,.5-2.468,3.641-5.3,5.934-6.7l7.568-3.442s3.643,1.733,3.83,1.785l-.365,1.716A19.591,19.591,0,0,0,560.591,325.748Z" transform="translate(-547.602 -318.117)" fill="#f8b791"/><path d="M553.931,325.322a3.11,3.11,0,0,0-.612.093c.114-.531.2-1.064.264-1.592,1.075-1.68,2.095-3.39,3.151-5.082.881.748,2.122,1.792,2.222,1.849l-4.712,12.439s-1.716.1-1.6-2.679A13.228,13.228,0,0,1,553.931,325.322Z" transform="translate(-543.058 -317.554)" fill="#f8b791"/></g><path d="M591.315,309.338s-14.882-2.207-19.079.89-19.29,15.365-19.29,15.365l7.154,6.745s32.045-16.88,33.742-19.473S592.2,309.6,591.315,309.338Z" transform="translate(-542.779 -308.576)" fill="#1ea0e0"/></g><path d="M610.71,290.921s-17.389-9.517-29.8,11.01-23.175,61.617-23.175,61.617l45.909,9.46,7.947-58.913S617.407,293.992,610.71,290.921Z" transform="translate(-535.027 -270.483)" fill="#5d9cd9"/><path d="M545.8,279.134l.68,17.3,5.244,4.295Z" transform="translate(-545.799 -279.134)" fill="#ffd3b2"/><path d="M545.8,279.134l12.248,17.044-1.863,3.647-4.739-.06Z" transform="translate(-545.799 -279.134)" fill="#ffe1c8"/><path d="M545.8,279.134l13.457,11.925,1.492,1.695-2.7,3.423Z" transform="translate(-545.799 -279.134)" fill="#ffe7d5"/><path d="M586.045,351.05l-5.278-11.071-3.2,1.526,4.313,9.049.965,2.022.965,2.024C585.529,353.259,586.452,351.9,586.045,351.05Z" transform="translate(-517.128 -224.217)" fill="#ffb457"/><path d="M581.45,355.724l-.964-2.024-.965-2.024-4.313-9.047-3.2,1.528,5.278,11.071C577.689,356.078,579.323,356.217,581.45,355.724Z" transform="translate(-522.145 -221.825)" fill="#d98014"/><path d="M583.8,356.007a19.292,19.292,0,0,0,3.51-2.131l-.965-2.024-.965-2.022-4.313-9.049-7.374,3.516L578,353.344l.965,2.024.965,2.024A19.4,19.4,0,0,0,583.8,356.007Z" transform="translate(-520.626 -223.493)" fill="#ff9717"/><path d="M546.831,287.632c.8-.285.187-3.186.846-3.935a.517.517,0,0,1,.192-.143.436.436,0,0,1,.205-.03c.918.041,2.244,2.376,2.97,2.042.309-.14.424-.733.4-1.432l-5.641-5,.33,8.165S546.613,287.712,546.831,287.632Z" transform="translate(-545.798 -279.133)" fill="#f57a44"/><path d="M552.5,285.507c-.6.428-.432,1.739-.259,2.985a8.11,8.11,0,0,1,.137,2.07l.78,1.149.573.845,41.792,87.668,3.2-1.526-43.141-90.5-.506-1.064-1.492-1.693A1.264,1.264,0,0,0,552.5,285.507Z" transform="translate(-540.13 -273.518)" fill="#ffb457"/><rect width="3.548" height="11.723" transform="matrix(0.903, -0.43, 0.43, 0.903, 55.393, 106.707)" fill="#eaeaea"/><rect width="3.549" height="11.723" transform="translate(44.816 111.749) rotate(-25.489)" fill="#c3c3c3"/><path d="M593.5,381.448,551.7,293.779l-.038-.128-.544-1.8a6.65,6.65,0,0,1-1.743-1.745c-.921-1.134-1.895-2.355-2.6-2.2a.993.993,0,0,0-.62.618l.489,2.888,1.3,2.734,42.343,88.825Z" transform="translate(-545.476 -271.226)" fill="#d98014"/><path d="M556.721,291.847l-.573-.845-.78-1.149a.641.641,0,0,1-.276.489c-.47.255-1.286-.512-2.173-1.457a14.037,14.037,0,0,0-2.77-2.631.6.6,0,0,0-.969.46,13.939,13.939,0,0,0,.213,3.851c.177,1.444.276,2.728-.255,2.913a.513.513,0,0,1-.373-.038l.544,1.8.038.128,41.792,87.668,7.372-3.516Z" transform="translate(-543.121 -272.809)" fill="#ff9717"/><rect width="8.168" height="11.723" transform="translate(48.019 110.222) rotate(-25.489)" fill="#d8d8d8"/><g transform="translate(20.25 21.194)"><path d="M591.692,290.288s4.935-1.031,4.5,14.317-2.4,45.38-3.986,53.049c-.392,1.9-1.823,10.725-6.257,5.965s-9.252-24.461-5.6-51.01C582.686,295.585,589.126,290.577,591.692,290.288Z" transform="translate(-536.029 -290.273)" fill="#73a7da"/><g transform="translate(0 37.946)"><path d="M599.351,340.247s-3.64-14.654-7.884-17S570.984,313,570.984,313l-3.164,9.77s26.546,21.174,29.423,21.476S599.456,341.177,599.351,340.247Z" transform="translate(-546.173 -307.703)" fill="#73a7da"/><path d="M580.995,315.368l-9.84-4.326-4-.824,1.632,3.807-3.493,1.754-3.8-.932-5.049-1.6,1.033,3.668A4.949,4.949,0,0,0,558.9,319c1.092.966,6.842,5.148,6.842,5.148l2.612-.837,5.9-2.3,4.222,2.515Z" transform="translate(-556.442 -310.218)" fill="#f8b791"/></g></g></g><g transform="translate(46.992)"><path d="M585.322,283.976l-.548-2.654-7.694,5.333.116,3.48a17.17,17.17,0,0,0,4.562-1.532A8.812,8.812,0,0,0,585.322,283.976Z" transform="translate(-564.558 -255.96)" fill="#f89a7a"/><g transform="translate(3.082 7.624)"><path d="M576.777,296.9a6.031,6.031,0,0,1-3.32-.951c-3.744-6.022,1.551-21.543,1.551-21.543l6.539-2.4,7.915,5.458-.021,10.563a8.563,8.563,0,0,1-3.973,7.1h0A16.726,16.726,0,0,1,576.777,296.9Z" transform="translate(-572.118 -271.999)" fill="#f8b791"/></g><g transform="translate(3.082 7.624)"><path d="M576.777,296.9a6.031,6.031,0,0,1-3.32-.951c-3.744-6.022,1.551-21.543,1.551-21.543l6.539-2.4,7.915,5.458-.021,10.563a8.563,8.563,0,0,1-3.973,7.1h0A16.726,16.726,0,0,1,576.777,296.9Z" transform="translate(-572.118 -271.999)" fill="#f8b791"/></g><g transform="translate(3.12 14.017)"><g transform="translate(8.756 7.118)"><path d="M577.029,281.81a1.145,1.145,0,0,0,1.069.2c1-.213,3.432-2.277,1.446-2.867C578.383,278.8,575.9,280.638,577.029,281.81Z" transform="translate(-576.74 -279.101)" fill="#f89a7a"/></g><g transform="translate(0 7.018)"><path d="M573.3,279.858a3.67,3.67,0,0,1-.167,1.785.617.617,0,0,1-.209.323.453.453,0,0,1-.586-.156,1.174,1.174,0,0,1-.169-.639c-.023-.468-.118-1.615.28-1.971C572.948,278.751,573.224,279.394,573.3,279.858Z" transform="translate(-572.138 -279.048)" fill="#f89a7a"/></g><g transform="translate(0.945)"><g transform="translate(0.189)"><path d="M574.245,275.379a1.478,1.478,0,0,1,1.105.63.764.764,0,0,1-.653.234,5.006,5.006,0,0,1-.7-.154,2.781,2.781,0,0,0-.721-.067,1.024,1.024,0,0,1-.314-.015c-.527-.158.019-.44.179-.518A2.274,2.274,0,0,1,574.245,275.379Z" transform="translate(-572.734 -275.359)" fill="#282e53"/></g><g transform="translate(0 2.967)"><path d="M574.64,277.739a.147.147,0,0,1-.122-.065,1.064,1.064,0,0,0-.782-.458,1.047,1.047,0,0,0-.849.32.149.149,0,0,1-.207.006.147.147,0,0,1-.006-.207,1.342,1.342,0,0,1,2.085.177.144.144,0,0,1-.038.2A.154.154,0,0,1,574.64,277.739Z" transform="translate(-572.635 -276.919)" fill="#282e53"/></g><g transform="translate(6.297 0.425)"><g transform="translate(0.084)"><path d="M577.364,276.373a1.888,1.888,0,0,1,1.376.209c.266.2.438.538.755.641a1.206,1.206,0,0,0-.6-.923,3.5,3.5,0,0,0-1.069-.392c-.485-.122-1.539-.656-1.792-.019C575.742,276.633,576.936,276.422,577.364,276.373Z" transform="translate(-575.989 -275.583)" fill="#282e53"/></g><g transform="translate(0 3.436)"><path d="M578.051,278.36a.148.148,0,0,1-.11-.049,1.916,1.916,0,0,0-.78-.544.968.968,0,0,0-.971.091.146.146,0,0,1-.2-.215,1.255,1.255,0,0,1,1.269-.152,2.2,2.2,0,0,1,.9.628.148.148,0,0,1-.015.207A.155.155,0,0,1,578.051,278.36Z" transform="translate(-575.945 -277.389)" fill="#282e53"/></g></g><g transform="translate(1.849 7.928)"><path d="M575.047,280.68a1.577,1.577,0,0,1-1.429-.949.147.147,0,1,1,.27-.114,1.323,1.323,0,0,0,1.187.771h0a.146.146,0,0,1,0,.293Z" transform="translate(-573.607 -279.527)" fill="#282e53"/></g></g><g transform="translate(3.058 12.692)"><path d="M574.764,283.483a1.723,1.723,0,0,1-.953-.27.147.147,0,0,1-.042-.2.15.15,0,0,1,.2-.04,1.631,1.631,0,0,0,1.467.09,3.193,3.193,0,0,0,1.242-.976.15.15,0,0,1,.207-.019.148.148,0,0,1,.019.207,3.5,3.5,0,0,1-1.36,1.062A2.2,2.2,0,0,1,574.764,283.483Z" transform="translate(-573.745 -282.031)" fill="#f89a7a"/></g></g><path d="M588.339,297.593l-3.073-14.876a8.811,8.811,0,0,1-3.564,4.627,17.167,17.167,0,0,1-4.562,1.532l.253,7.738Z" transform="translate(-564.503 -254.701)" fill="#f8b791"/><path d="M589.365,286.989c-.367-1.792.055-5.867-1.762-5.654-1.324.154-5.841.133-7.359.063-3.613-.167-9.992-1.878-9.739-7.378.126-2.751,2.9-5,4.625-5.626a7.329,7.329,0,0,1,5.23.175c3.917,1.573,9.054,4.888,11.179,4.56,3.575-.55,7.013,1.691,6.825,4.7-.2,3.213-2.1,7.972-3.824,10.97a16.9,16.9,0,0,1-3.826,4.557h0Z" transform="translate(-570.498 -267.992)" fill="#282e53"/><path d="M584.424,278.523a2.725,2.725,0,0,0-3.383.145c-1.094.829-1.355,2.108-.582,2.858a2.723,2.723,0,0,0,3.381-.147C584.935,280.549,585.2,279.27,584.424,278.523Z" transform="translate(-561.909 -258.958)" fill="#f8b791"/></g></g><path d="M599,154.362c3,.443,5.8,1.851,8.816,2.167,8.771.917,15.46-7.119,21.874-13.173,9.9-9.353,25.724-15.23,37.009-7.6,4.834,3.271,7.957,8.449,11.691,12.936s8.834,8.617,14.665,8.369c4.083-.171,7.726-2.46,11.59-3.788,14.089-4.846,29.229,5.586,31.215,20.352H583.626C584.1,164.187,585.911,152.433,599,154.362Z" transform="translate(85.159 -132.253)" fill="#e2ecf9"/><g transform="translate(407.715 20.431)"><rect width="49.559" height="29.052" rx="2.904" transform="translate(0)" fill="#222c70"/><path d="M471.16,157.552v9.307a1.741,1.741,0,0,0,2.972,1.233l10.54-10.54Z" transform="translate(-440.16 -129.851)" fill="#222c70"/></g><g transform="translate(530.48 33.267)"><path d="M563.631,155.144h-50a2.7,2.7,0,0,1-2.7-2.7h0a2.7,2.7,0,0,1,2.7-2.7h50a2.7,2.7,0,0,1,2.7,2.7h0A2.7,2.7,0,0,1,563.631,155.144Z" transform="translate(-510.932 -149.739)" fill="#e2ecf9"/><path d="M563.631,161.181h-50a2.7,2.7,0,0,1-2.7-2.7h0a2.7,2.7,0,0,1,2.7-2.7h50a2.7,2.7,0,0,1,2.7,2.7h0A2.7,2.7,0,0,1,563.631,161.181Z" transform="translate(-510.932 -144.29)" fill="#e2ecf9"/><path d="M563.631,167.218h-50a2.7,2.7,0,0,1-2.7-2.7h0a2.7,2.7,0,0,1,2.7-2.7h50a2.7,2.7,0,0,1,2.7,2.7h0A2.7,2.7,0,0,1,563.631,167.218Z" transform="translate(-510.932 -138.841)" fill="#e2ecf9"/></g><g transform="translate(105.01 171.37)"><path d="M413.063,198.823h-50a2.7,2.7,0,0,1-2.7-2.7h0a2.7,2.7,0,0,1,2.7-2.7h50a2.7,2.7,0,0,1,2.7,2.7h0A2.7,2.7,0,0,1,413.063,198.823Z" transform="translate(-360.364 -193.418)" fill="#e2ecf9"/><path d="M413.063,204.86h-50a2.7,2.7,0,0,1-2.7-2.7h0a2.7,2.7,0,0,1,2.7-2.7h50a2.7,2.7,0,0,1,2.7,2.7h0A2.7,2.7,0,0,1,413.063,204.86Z" transform="translate(-360.364 -187.969)" fill="#e2ecf9"/><path d="M398.2,210.9H363.067a2.7,2.7,0,0,1-2.7-2.7h0a2.7,2.7,0,0,1,2.7-2.7H398.2a2.7,2.7,0,0,1,2.7,2.7h0A2.7,2.7,0,0,1,398.2,210.9Z" transform="translate(-360.364 -182.52)" fill="#e2ecf9"/></g><g transform="translate(498.606 108.938)"><circle cx="21.958" cy="21.958" r="21.958" fill="#f57a44"/><path d="M501.344,207.8l8.2,6.563,14.767-18.049" transform="translate(-490.932 -183.376)" fill="#f57a44" stroke="#fffffd" stroke-linecap="round" stroke-linejoin="round" stroke-width="3"/></g><text transform="translate(415.98 41.013)" fill="#ffe6b3" font-size="20" font-family="Consolas-Bold, Consolas" font-weight="700"><tspan x="0" y="0">&lt;/&gt;</tspan></text></svg>