<svg xmlns="http://www.w3.org/2000/svg" xmlns:xlink="http://www.w3.org/1999/xlink" viewBox="0 0 1920 704.26"><defs><style>.cls-1,.cls-7{fill:none;}.cls-2{fill:#d6d9e8;}.cls-3{fill:#e3ebf7;}.cls-4{fill:#e3e9f1;}.cls-5{fill:#73a7da;}.cls-6{fill:#f1f6f7;}.cls-7{stroke:#314a66;stroke-miterlimit:10;stroke-width:0.87px;}.cls-8{clip-path:url(#clip-path);}.cls-9{fill:#3d4b96;}.cls-10{fill:#29306f;}.cls-11{fill:#7165ad;}.cls-12{fill:#a8a1cf;}.cls-13{fill:#fff;}.cls-14,.cls-41{fill:#ffe6b3;}.cls-15{fill:#edb2bb;}.cls-16{fill:#cbddf2;}.cls-17{fill:#accaea;}.cls-18{fill:#f7f8f9;}.cls-19{fill:#f79b7b;}.cls-20{fill:#f8b791;}.cls-21{fill:#1f1d51;}.cls-22{fill:#f89721;}.cls-23{fill:#609cd4;}.cls-24{fill:#f6907f;}.cls-25{fill:#282c69;}.cls-26{fill:#1e92cc;}.cls-27{fill:#353c6c;}.cls-28{fill:#282f53;}.cls-29{fill:#299fda;}.cls-30{fill:#fdd3b3;}.cls-31{fill:#fee1c8;}.cls-32{fill:#fee6d5;}.cls-33{fill:#fcb358;}.cls-34{fill:#d88127;}.cls-35,.cls-39{fill:#f47b44;}.cls-36{fill:#eaeaea;}.cls-37{fill:#c3c3c3;}.cls-38{fill:#d8d9d8;}.cls-39{stroke:#fff;stroke-linecap:round;stroke-linejoin:round;stroke-width:3px;}.cls-40,.cls-41{isolation:isolate;}.cls-41{font-size:20px;font-family:Consolas-Bold, Consolas;font-weight:700;}.cls-42{fill:#f3f4f6;}</style><clipPath id="clip-path"><path class="cls-1" d="M1272.46,366.07a274.65,274.65,0,0,0,130.84-67.86c-5-6.9-10-13.46-10.88-15,5.32,3.45,10.49,7,15.79,10.35a256.37,256.37,0,0,0,36.38-44.66c-5.58-5.67-10.81-11.84-13.12-17.83,2.19.27,11,5.17,18.67,8.74a232.13,232.13,0,0,0,16.2-33.95,105.4,105.4,0,0,1-16.78-4.91c1.45-.25,11.27-1.71,19.65-3.07,6.53-19.53,10-40.32,5.34-60.35-.15-.66-.31-1.31-.48-2a369.37,369.37,0,0,0-53.9,24.49c-1.47,10.3-4,20.83-2.19,31q-2.45-13.47-4.88-26.93c-1.55.91-3.1,1.82-4.64,2.75a361.82,361.82,0,0,0-45.48,32.5c1.36,4.77,2.78,8.65,4.15,9.31q-4.74-2.29-9.22-5a343.34,343.34,0,0,0-42.8,44.55c-26.82,33.54-53.65,68.42-49.45,112.68.17,1.77.58,3.8,2,4.86a3.21,3.21,0,0,0,.65.37A6.78,6.78,0,0,0,1272.46,366.07Z"/></clipPath></defs><title>HeroPlusIllustration_1</title><g id="Layer_2" data-name="Layer 2"><g id="Layer_1-2" data-name="Layer 1"><path class="cls-2" d="M1380.34,468c0,5.79-101.79,10.48-227.35,10.48S925.64,473.82,925.64,468s101.79-10.47,227.35-10.47S1380.34,462.25,1380.34,468Z"/><path class="cls-3" d="M869.47,51.8c2.65.54,5.22,1.7,7.92,1.57,6.73-.31,10.34-7.77,13.17-13.89,5.16-11.14,12.91-21.73,24.08-26.83s26.14-3.12,33.25,6.89c3,4.24,4.38,9.42,7,13.91s7.3,8.53,12.45,7.78c2.94-.43,5.42-2.33,7.86-4,5.7-4,12.07-7.2,18.93-8.26s14.29.25,19.73,4.57c4.73,3.76,7.82,9.56,13.24,12.22,7.3,3.57,16,.2,24.1.92,10.94,1,19.69,9.16,27.19,17.17,2.62,2.8,4.47,5.77,7,8.64H857.14c-2,0-7.24.78-8.69-.81-3.08-3.39,2.45-11.79,4.76-14.22C857.3,53.12,863.53,50.59,869.47,51.8Z"/><path class="cls-4" d="M715.08,527.84c-1.41-36.9,29.6-171.32,63.28-186.48s73.75-12.62,107.76-27c92.76-39.2,143.51-141.93,230.9-192,84.39-48.32,200.11-36.34,270.33,30.92,55.22,52.9,81.44,133.11,143.9,177.22,33.68,23.78,86.86,16.16,124.74,32.42s57.75,57.79,71.62,96.62Z"/><path class="cls-5" d="M1367.91,294.05c3.45-3,7.74-6.16,12.47-5.33,9,1.57,8.29,13.57,5.24,21.38,9.39-14.22,19.69-29.2,36.16-36.18a13.21,13.21,0,0,1,6.83-1.35c4.63.63,7.56,5.4,7.4,9.68s-2.59,8.15-4.94,11.82c19.68-15.91,47.21-23.35,73.46-19.86,2.09.28,4.4.76,5.57,2.39s.58,4.13-.27,6.08c-5.43,12.45-16.07,22.85-29.26,28.59,8.34-3.35,16.9,7.72,13.57,15.5s-12.94,11.46-21.87,13.19-18.57,2.49-25.87,7.46c4.38-3.14,11.67.85,12.25,6s-3.83,9.75-9,11.6-11,1.58-16.58,1.27L1409.43,365a9.86,9.86,0,0,0,3.2,6.83c-4.11,8.81-16.57,10.65-27.05,11.28-26.84,1.61-57.7,4.29-82.84-6.37C1308.85,345.4,1343.92,314.92,1367.91,294.05Z"/><path class="cls-6" d="M1458.43,319.37c1.83-.55,4.57-1.61,5,.48.62,3-9.45,4.28-9.33,1.18,0-1.25,3.1-1.17,4.34-1.66"/><path class="cls-6" d="M1389.19,368.57c1.83-.56,4.57-1.62,5,.47.62,3.06-9.45,4.29-9.33,1.19,0-1.26,3.1-1.17,4.34-1.66"/><path class="cls-6" d="M1418.29,356.37c1.87.51,4.8,1.08,3.86,3-1.38,2.81-10.53-1.46-8.51-3.91.81-1,3.3.67,4.65.92"/><path class="cls-6" d="M1367.15,339.78c1.87.5,4.8,1.07,3.86,3-1.38,2.81-10.53-1.46-8.51-3.92.82-1,3.3.67,4.65.93"/><path class="cls-6" d="M1418,306.14c-.6,1.68-1.29,4.34-3.35,3.36-3-1.44,1.85-9.57,4.47-7.57,1.06.81-.81,3-1.12,4.21"/><path class="cls-6" d="M1351.41,324.37c-.6,1.69-1.29,4.35-3.35,3.37-3-1.44,1.84-9.57,4.47-7.57,1,.81-.82,3-1.12,4.2"/><path class="cls-6" d="M1472.75,297.73c-1.74.77-4.29,2.16-5,.13-1-3,8.74-5.4,9.06-2.3.14,1.25-2.9,1.54-4,2.18"/><path class="cls-6" d="M1435.82,338.66c-1.86-.55-4.78-1.18-3.79-3.08,1.45-2.77,10.49,1.7,8.41,4.1-.84,1-3.29-.74-4.62-1"/><path class="cls-6" d="M1466.44,329.8c-1.73.77-4.28,2.15-5,.13-1-3,8.74-5.4,9.07-2.3.13,1.25-2.9,1.53-4.06,2.17"/><path class="cls-6" d="M1382.66,320.54c-.54,1.7-1.12,4.38-3.22,3.47-3.08-1.34,1.48-9.63,4.17-7.71,1.09.77-.7,3-.95,4.24"/><path class="cls-6" d="M1446.79,301.17c-.53,1.7-1.12,4.38-3.22,3.47-3.07-1.34,1.48-9.63,4.18-7.71,1.08.77-.7,3-1,4.24"/><path class="cls-6" d="M1339,356.35c-.53,1.7-1.12,4.38-3.21,3.47-3.08-1.34,1.47-9.63,4.17-7.71,1.09.77-.7,3-1,4.24"/><path class="cls-6" d="M1363.73,369c1.9.35,4.88.69,4.12,2.67-1.1,2.92-10.61-.61-8.83-3.22.71-1.06,3.35.4,4.71.55"/><path class="cls-6" d="M1401.87,344c1.56-1,3.82-2.78,4.9-.89,1.56,2.78-7.62,6.67-8.5,3.66-.36-1.22,2.57-2,3.6-2.77"/><path class="cls-7" d="M1459,306.09a1137.48,1137.48,0,0,1-184.55,81.14"/><path class="cls-5" d="M926.46,456.89c-4.58-.16-9.86-.76-12.76-4.6-5.49-7.25,3.17-15.58,10.73-19.22-16.57,4-34.31,8-51.11,1.85a13.25,13.25,0,0,1-5.93-3.66c-3-3.62-1.86-9.11,1.18-12.13s7.45-4.2,11.67-5.28c-25.25-1.77-50.47-15.08-67.31-35.52-1.34-1.62-2.7-3.56-2.45-5.54.29-2.17,2.39-3.42,4.35-4.27,12.46-5.42,27.32-5.77,40.9-1-8.39-3.23-7.12-17.17.62-20.6s17.28.43,25,5.25,15.29,10.83,24,12.16c-5.34-.68-8-8.57-4.9-12.72s9.44-4.52,14.5-2.34,9.12,6.33,13,10.36q8.19,8.52,16.41,17a9.81,9.81,0,0,0,2.3-7.18c9-3.65,19.39,3.5,27.49,10.18,20.75,17.1,45.16,36.17,56.3,61.1C1004.67,459.54,958.24,458,926.46,456.89Z"/><path class="cls-6" d="M877.45,376.68c-1.72-.84-4.45-1.93-3.33-3.75,1.62-2.66,9.83,3.3,7.64,5.5-.89.88-3.07-1.26-4.31-1.75"/><path class="cls-6" d="M961.65,387.84c-1.72-.84-4.45-1.93-3.33-3.75,1.62-2.66,9.83,3.3,7.64,5.5-.89.88-3.07-1.26-4.31-1.75"/><path class="cls-6" d="M932,377c-1-1.65-2.78-4.06-.79-4.83,2.93-1.11,6.71,8.25,3.56,8.67-1.27.17-2-2.75-2.77-3.84"/><path class="cls-6" d="M958.17,423.93c-1-1.64-2.79-4.06-.79-4.82,2.92-1.12,6.71,8.25,3.56,8.67-1.27.17-2-2.75-2.77-3.85"/><path class="cls-6" d="M898,413.91c1.59-.83,3.9-2.3,4.74-.18,1.24,3.11-7.87,5.75-8.42,2.49-.23-1.31,2.63-1.63,3.68-2.31"/><path class="cls-6" d="M959.2,445.93c1.58-.82,3.9-2.3,4.74-.17,1.24,3.11-7.87,5.74-8.43,2.49-.22-1.31,2.64-1.64,3.69-2.32"/><path class="cls-6" d="M852.23,382.77c1.79.61,4.6,1.34,3.75,3.31-1.25,2.89-10.07-2-8.2-4.49.75-1,3.17.85,4.45,1.18"/><path class="cls-6" d="M907.14,378c1,1.66,2.69,4.12.68,4.83-3,1-6.53-8.39-3.36-8.73,1.27-.14,1.9,2.78,2.68,3.9"/><path class="cls-6" d="M878.69,363.59c1.79.62,4.6,1.34,3.75,3.31-1.25,2.89-10.07-2-8.2-4.49.75-1,3.17.86,4.45,1.18"/><path class="cls-6" d="M933.71,427.45c1.55-.89,3.81-2.45,4.72-.35,1.34,3.08-7.64,6-8.31,2.8-.27-1.31,2.57-1.74,3.59-2.45"/><path class="cls-6" d="M873.57,397.94c1.55-.89,3.8-2.45,4.71-.35,1.34,3.07-7.64,6-8.3,2.8-.27-1.31,2.56-1.74,3.59-2.46"/><path class="cls-6" d="M990.07,431c1.55-.88,3.81-2.44,4.72-.35,1.34,3.08-7.64,6.05-8.31,2.8-.26-1.3,2.57-1.73,3.59-2.45"/><path class="cls-6" d="M980.58,404.87c-1.15-1.56-3.1-3.83-1.2-4.77,2.79-1.38,7.35,7.68,4.27,8.39-1.24.28-2.18-2.59-3.07-3.62"/><path class="cls-6" d="M935.66,397.16c-1.84-.32-4.7-.57-4.19-2.69.75-3.1,10.12.31,8.71,3.12-.57,1.13-3.22-.33-4.52-.43"/><path class="cls-7" d="M868,386a1136.69,1136.69,0,0,1,190.37,66.34"/><g class="cls-8"><path class="cls-9" d="M1474.06,135.51a369.86,369.86,0,0,0-53.9,24.49c-1.47,10.3-4,20.83-2.19,30.95L1413.09,164c-1.55.91-3.09,1.82-4.63,2.75a363.68,363.68,0,0,0-45.49,32.5c1.37,4.77,2.79,8.65,4.16,9.31q-4.74-2.29-9.22-5a342.68,342.68,0,0,0-42.8,44.55c-26.82,33.54-53.65,68.42-49.45,112.68.17,1.77.58,3.8,2,4.86,69.36-72.94,150.58-149.15,206.85-228.22C1474.39,136.82,1474.23,136.17,1474.06,135.51Z"/><path class="cls-10" d="M1267.7,365.69a3.21,3.21,0,0,0,.65.37,6.83,6.83,0,0,0,4.1,0,274.77,274.77,0,0,0,130.85-67.86c-5.06-6.9-10-13.46-10.88-15,5.32,3.45,10.48,7,15.78,10.35a256.28,256.28,0,0,0,36.38-44.66c-5.57-5.67-10.8-11.84-13.11-17.83,2.18.26,11,5.17,18.67,8.73a232.56,232.56,0,0,0,16.2-33.94,105.51,105.51,0,0,1-16.79-4.91c1.45-.26,11.27-1.71,19.65-3.08,6.53-19.52,10-40.31,5.34-60.35C1418.28,216.54,1337.06,292.75,1267.7,365.69Z"/><path class="cls-11" d="M1257.32,375.78l-.46-.46L1315.92,316c52.14-52.41,106-106.6,150.62-166.2,3.6-4.81,6.72-9.2,8.36-14.18l.61.2c-1.67,5.07-4.81,9.51-8.45,14.37-44.6,59.63-98.53,113.84-150.69,166.27Z"/><path class="cls-11" d="M1442.26,264.9a147.84,147.84,0,0,1-48.12-28l.43-.49a147.08,147.08,0,0,0,47.9,27.86Z"/><path class="cls-11" d="M1424.84,286.1a102.49,102.49,0,0,1-50.25-30.1l.48-.43A101.8,101.8,0,0,0,1425,285.48Z"/><path class="cls-11" d="M1404.79,224c-1.85-6.05-1.45-12.46-.84-19a552.58,552.58,0,0,1,8.41-57.41l.64.12a549.15,549.15,0,0,0-8.4,57.35c-.6,6.52-1,12.86.81,18.8Z"/><path class="cls-11" d="M1396.92,232c-6.61-26.68-3.23-53.78,1.5-83.9l.64.1c-4.72,30-8.09,57.08-1.51,83.64Z"/><path class="cls-11" d="M1448.64,173.38l-.15-.63a87.47,87.47,0,0,0,42.6-23.68l.46.45A88.13,88.13,0,0,1,1448.64,173.38Z"/><path class="cls-11" d="M1440.29,183.68l-.18-.62a339.24,339.24,0,0,0,48.07-18.42l.27.59A339.56,339.56,0,0,1,1440.29,183.68Z"/><path class="cls-11" d="M1356,276.21c-9.41-6.24-16.9-16.11-21.66-28.54-4.29-11.17-6-22.9-7.64-34.25l.64-.09c1.64,11.31,3.34,23,7.6,34.11,3.29,8.58,9.68,20.44,21.42,28.23Z"/><path class="cls-11" d="M1349.09,283c-18.23-16.43-29.17-39.18-30-62.4l.64,0c.83,23,11.69,45.63,29.8,62Z"/><path class="cls-11" d="M1394.13,334.2c-13.53-4.52-24-9.19-32.9-14.7-11.11-6.87-19.63-15-25.33-24.15l.55-.34c5.65,9.07,14.1,17.12,25.12,23.94,8.87,5.49,19.29,10.14,32.77,14.64Z"/><path class="cls-11" d="M1321,311.05a64.28,64.28,0,0,1-23.62-29.49c-4.26-10.52-6.26-22.71-5.93-36.23l.64,0c-.32,13.43,1.66,25.53,5.89,36a63.54,63.54,0,0,0,23.37,29.18Z"/></g><path class="cls-12" d="M973.79,362.4l-.25-.1c-33.09-12.95-59.63-42.7-71-79.58S896.35,206.31,916.41,177l.15-.22.25.1c33.09,13,59.64,42.7,71,79.58h0c11.37,36.88,6.19,76.41-13.87,105.75Zm-57-184.82C897,206.72,891.9,245.93,903.18,282.52s37.58,66.12,70.36,79.05c19.82-29.14,24.92-68.35,13.64-104.94h0C975.89,220,949.61,190.5,916.82,177.58Z"/><rect class="cls-12" x="948.86" y="190.83" width="0.68" height="170.81" transform="translate(-37.8 332.04) rotate(-19.46)"/><rect class="cls-12" x="919.87" y="209.78" width="0.68" height="26.84" transform="translate(322.09 957.27) rotate(-64.46)"/><rect class="cls-12" x="926.76" y="232.78" width="0.68" height="33.08" transform="translate(302.44 978.34) rotate(-64.46)"/><rect class="cls-12" x="926.44" y="244.34" width="0.68" height="55.3" transform="translate(281.85 990.99) rotate(-64.46)"/><rect class="cls-12" x="936.81" y="272.88" width="0.68" height="53.78" transform="translate(262.63 1016.1) rotate(-64.46)"/><rect class="cls-12" x="957.28" y="317.4" width="0.68" height="29.95" transform="translate(244.81 1053.08) rotate(-64.46)"/><rect class="cls-12" x="923.93" y="213.08" width="26.83" height="0.68" transform="translate(340.55 967.07) rotate(-64.45)"/><rect class="cls-12" x="929.36" y="233.78" width="41.83" height="0.68" transform="translate(329.34 990.6) rotate(-64.46)"/><rect class="cls-12" x="936.07" y="256.48" width="52.37" height="0.68" transform="translate(315.49 1014.18) rotate(-64.45)"/><rect class="cls-12" x="945.37" y="283.3" width="53.8" height="0.68" transform="translate(296.87 1038.35) rotate(-64.44)"/><rect class="cls-12" x="957.23" y="314.18" width="46.22" height="0.68" transform="translate(273.22 1062.84) rotate(-64.41)"/><path class="cls-10" d="M939.37,312.26c31,25.3,47.4,61.21,47,95.42-33.42,7.3-71.9-1.46-102.94-26.75s-47.4-61.22-47-95.42C869.85,278.21,908.33,287,939.37,312.26Z"/><rect class="cls-13" x="914.46" y="263.28" width="0.68" height="170.81" transform="translate(66.64 837.62) rotate(-50.83)"/><rect class="cls-13" x="849.02" y="318.15" width="26.84" height="0.68" transform="translate(-27.93 89.42) rotate(-5.84)"/><rect class="cls-13" x="865.38" y="336.87" width="33.08" height="0.68" transform="translate(-29.66 91.22) rotate(-5.82)"/><rect class="cls-13" x="865.8" y="356.39" width="55.3" height="0.68" transform="translate(-31.58 92.49) rotate(-5.82)"/><rect class="cls-13" x="889.87" y="374.7" width="53.81" height="0.68" transform="translate(-33.47 95.45) rotate(-5.85)"/><rect class="cls-13" x="936.23" y="391.9" width="29.95" height="0.68" transform="translate(-34.88 98.49) rotate(-5.82)"/><rect class="cls-13" x="871.65" y="287.8" width="0.68" height="26.83" transform="translate(-26.06 90.04) rotate(-5.82)"/><rect class="cls-13" x="893.46" y="291.23" width="0.68" height="41.84" transform="translate(-27.07 92.36) rotate(-5.83)"/><rect class="cls-13" x="915.52" y="299.12" width="0.68" height="52.38" transform="translate(-28.4 95.09) rotate(-5.85)"/><rect class="cls-13" x="938.02" y="316.1" width="0.68" height="53.8" transform="matrix(0.99, -0.1, 0.1, 0.99, -29.97, 97)"/><rect class="cls-13" x="960.98" y="342.06" width="0.68" height="46.22" transform="translate(-32.12 99.52) rotate(-5.83)"/><path class="cls-12" d="M1272.56,220.23q-3.19,0-6.39-.19l-.26,0-.05-.26c-5.89-35,6-73.1,31.8-101.8s62.37-44.57,97.85-42.42h.27l0,.26c5.89,35.05-6,73.1-31.8,101.8h0C1339.78,204.6,1306,220.23,1272.56,220.23Zm-6.08-.85c35.18,2,71.44-13.74,97-42.21h0c25.6-28.48,37.43-66.2,31.68-101-35.18-2-71.44,13.74-97,42.22s-37.43,66.2-31.67,101Z"/><path class="cls-12" d="M1273,220.65l-.52-.43L1381.4,88.66l.52.43Z"/><rect class="cls-12" x="1357.46" y="89.12" width="0.68" height="26.84" transform="translate(-3.64 127.59) rotate(-5.37)"/><rect class="cls-12" x="1338.59" y="105.32" width="0.68" height="33.08" transform="matrix(1, -0.09, 0.09, 1, -5.53, 125.89)"/><rect class="cls-12" x="1318.98" y="105.59" width="0.68" height="55.3" transform="translate(-6.68 124.22) rotate(-5.38)"/><rect class="cls-12" x="1300.47" y="129.52" width="0.68" height="53.79" transform="translate(-8.93 122.49) rotate(-5.37)"/><rect class="cls-12" x="1283.02" y="175.74" width="0.68" height="29.97" transform="matrix(1, -0.09, 0.09, 1, -12.24, 121.43)"/><rect class="cls-12" x="1361.58" y="111.88" width="26.83" height="0.68" transform="translate(-4.46 129.37) rotate(-5.38)"/><rect class="cls-12" x="1342.97" y="133.6" width="41.84" height="0.68" transform="translate(-6.55 128.4) rotate(-5.38)"/><rect class="cls-12" x="1324.37" y="155.55" width="52.37" height="0.68" transform="translate(-8.67 127.27) rotate(-5.38)"/><rect class="cls-12" x="1305.79" y="177.91" width="53.8" height="0.68" transform="translate(-10.84 125.69) rotate(-5.38)"/><rect class="cls-12" x="1287.23" y="200.7" width="46.22" height="0.68" transform="translate(-13.07 123.68) rotate(-5.38)"/><path class="cls-14" d="M1291.23,164.73c-5.75,39.63-28.16,72.11-57.71,89.34-23.43-24.92-35.69-62.44-29.93-102.06s28.16-72.11,57.71-89.33C1284.73,87.59,1297,125.11,1291.23,164.73Z"/><rect class="cls-15" x="1161.96" y="162.02" width="170.81" height="0.68" transform="matrix(0.14, -0.99, 0.99, 0.14, 906.62, 1373.21)"/><rect class="cls-15" x="1246.03" y="88.51" width="0.68" height="26.84" transform="translate(186.59 765.77) rotate(-36.74)"/><rect class="cls-15" x="1239.98" y="111.71" width="0.68" height="33.08" transform="matrix(0.8, -0.6, 0.6, 0.8, 169.63, 767.36)"/><rect class="cls-15" x="1229.15" y="120.52" width="0.68" height="55.29" transform="translate(155.63 764.95) rotate(-36.74)"/><rect class="cls-15" x="1225.41" y="150.7" width="0.67" height="53.77" transform="translate(137.3 768.57) rotate(-36.74)"/><rect class="cls-15" x="1228.36" y="200.99" width="0.67" height="29.94" transform="translate(114.92 777.96) rotate(-36.74)"/><rect class="cls-15" x="1252.68" y="100.9" width="26.83" height="0.68" transform="translate(190.8 777.24) rotate(-36.73)"/><rect class="cls-15" x="1247" y="125.24" width="41.83" height="0.67" transform="translate(176.79 783.46) rotate(-36.74)"/><rect class="cls-15" x="1241.77" y="150.92" width="52.35" height="0.67" transform="translate(161.43 788.58) rotate(-36.74)"/><rect class="cls-15" x="1237.44" y="179.31" width="53.8" height="0.68" transform="translate(143.8 792.19) rotate(-36.75)"/><rect class="cls-15" x="1234.01" y="210.4" width="46.22" height="0.68" transform="translate(123.76 794.05) rotate(-36.75)"/><path class="cls-16" d="M1150.67,343.82l-167.4-31a71.47,71.47,0,0,1-14.66-5.48l-.25,124.1a31.48,31.48,0,0,0,31.33,31.46l301.47.61a31.5,31.5,0,0,0,31.47-31.34l.25-124.65a81.81,81.81,0,0,1-14.69,6Z"/><path class="cls-3" d="M1316,194.13l-330.11-.66H983.5A31.48,31.48,0,0,0,952,224.8l-.1,51.63c0,12.33,6.13,20.46,16.67,26a71.33,71.33,0,0,0,14.66,5.48l167.4,31,167.53-30.36a81,81,0,0,0,14.68-6l.16-80.52A31.46,31.46,0,0,0,1316,194.13Z"/><path class="cls-17" d="M1179.9,378.76l-58.61-.11.15-73.83,58.61.12-.15,73.82Z"/><path class="cls-5" d="M1168.34,364.73l-35.9-.08.09-45.21,35.9.08-.09,45.21Z"/><path class="cls-16" d="M1099.82,193.69l-22.8,0,0-6.51,22.79,0v6.51Z"/><path class="cls-16" d="M1224.48,193.94l-22.8,0,0-6.52,22.79.05v6.51Z"/><path class="cls-16" d="M1150.6,142.28c-39.17-.08-71,20-71,44.86l17.6,0c0-18.69,23.95-33.8,53.42-33.74s53.31,15.26,53.27,33.95l17.6,0c0-24.86-31.67-45.07-70.85-45.15Z"/><path class="cls-18" d="M653.54,364.57c-1.77,11.51,4.7,23.49,14.69,29.46s22.84,6.26,33.68,2a46,46,0,0,0,28.33-38,26.13,26.13,0,0,0-1.48-12.26c-3.44-8.25-12.61-12.94-21.53-13.62C683.44,330.31,657.78,337.16,653.54,364.57Z"/><path class="cls-5" d="M1029.27,95.82c1.92-.29,6.55,2.72,7.46,8.26a175.77,175.77,0,0,1,2,38.07s-.42,6-3.67,4.67-7-14.24-9.74-40.44C1024.51,98.82,1026,96.31,1029.27,95.82Z"/><path class="cls-19" d="M1060,158.83s2.84,1.49,3.57,2.91c.51,1,2.14,6.07,2.14,6.07a6.29,6.29,0,0,1-2.34-3.1A21.13,21.13,0,0,0,1060,158.83Z"/><path class="cls-19" d="M1062.17,161.75c1.87.75,3,2.75,3.86,5.44a4.62,4.62,0,0,0,2.41,3.15,32.06,32.06,0,0,0-2-5.55c-.46-1.08-1-2.15-1.5-3.18C1063.24,158.2,1057.37,159.83,1062.17,161.75Z"/><path class="cls-19" d="M1057.2,157.23c.15,1.4,2.1,3.22,1.93,4.09a9.38,9.38,0,0,1-1.5,3.69c3,0,3.43-4.15,4.72-5.44S1056.8,153.61,1057.2,157.23Z"/><path class="cls-19" d="M1043.14,148.44c4.92,1.94,10.59,4.05,12.8,6.19,3.13,3,3.41,6,6.23,7.12.3.14.59.3.88.47.77.43,1.72.77,2,1s1.22,1.06,1,.6c-1.92-4.13-4.47-8.56-5.37-9.2-1.84-1.32-12.34-8.16-16.76-9.89C1038.94,142.77,1036.51,145.82,1043.14,148.44Z"/><path class="cls-19" d="M1062.31,161.33s.41-1,1.21-.73a15.2,15.2,0,0,1,4.07,3.1c.77.8,3.83,5.16,3.83,5.16a6.15,6.15,0,0,1-3.15-2.27C1066.47,164,1062.31,161.33,1062.31,161.33Z"/><path class="cls-19" d="M1037.31,140.22c-3.5.93-3.75,1.58-4,3.47,8.25,6.45,25.64,9.77,25.64,9.77Z"/><path class="cls-5" d="M1046.9,152.9c.42-2.28,2.06-4.43,3-5.88-4.57-3.41-8.86-5.67-13.86-8.67a2.72,2.72,0,0,0-3.65,1.21,2.79,2.79,0,0,0-.27,1.45c.5,3.54,1.13,5,4.93,7.2A76.3,76.3,0,0,0,1046.9,152.9Z"/><path class="cls-10" d="M988.62,174.89s0-.11,0-.16a.64.64,0,0,1,.1-.13A87.72,87.72,0,0,1,996.53,151c2.66-5.15,8-10,10.41-12.49,6.11,3.33,12.14,1.79,17.86,6.11a53.06,53.06,0,0,1,1.76,7.68c.87,5,1.62,9.63,2.26,14,8.86.83,30.72,2.51,38.94,4.13,4.88,1.12,5.16,3,5.92,3.63-.43,7.95-6.88,12.45-10.79,18.81-.69,1.13-53,.15-62,.61C1002.11,194,984.23,191.6,988.62,174.89Z"/><path class="cls-19" d="M1070.31,185.24c1.43-1.66,2.23-3.74,3.3-5.58.83-3.56.82-5.94-.2-6.79-3.87-3.19-17.06,3.46-50.24,53.2-7.22,10.83-21.5,31.53-18.45,29.24,3.39-2.54,6.12-5.58,9.32-8.89C1059.38,199.42,1063.56,193.07,1070.31,185.24Z"/><path class="cls-10" d="M1003.63,253.46l5.88-9.41a2.65,2.65,0,0,1,2.37-1.36l-4.53,7.25a3.32,3.32,0,0,0,.48,4.22,2.24,2.24,0,0,0,1.28.48l-1.35,2.17a2.45,2.45,0,0,1-3.28,1.09,2.85,2.85,0,0,1-.37-.23A3.29,3.29,0,0,1,1003.63,253.46Z"/><path class="cls-10" d="M1024.49,144.24c0,.24-1.19.37-2.63.28l-16.24-1c-1.44-.09-2.59-.36-2.57-.61l.05-.92c0-.25,1.19-.37,2.63-.28l16.24,1c1.43.09,2.58.36,2.57.6Z"/><path class="cls-20" d="M1061.1,188.92c1.14-1.81,1.49-4,2.2-5.94.16-3.58-.46-5.66-1.44-6.56-4.45-4-14.25,3.46-30.12,36.09-8,16.45-14.39,31.75-25.2,40.56-1.58,1.28-2,1.46-2.5,2.95-1.57,4.64-.88,10.41-.68,10.22C1010.93,259.31,1040,222.33,1061.1,188.92Z"/><path class="cls-10" d="M1000.26,262.83l5.1-9.86a2.66,2.66,0,0,1,2.25-1.54l-3.93,7.6a3.29,3.29,0,0,0,.83,4.15,2.11,2.11,0,0,0,1.31.39l-1.17,2.26a2.45,2.45,0,0,1-3.19,1.36l-.38-.19A3.3,3.3,0,0,1,1000.26,262.83Z"/><path class="cls-10" d="M1039.86,90.15a6.23,6.23,0,0,0-1.55-6.36,16.38,16.38,0,0,0-2.94-2.23,15.71,15.71,0,1,0,2.33,25.69,6.4,6.4,0,0,0,2-6.61A19,19,0,0,1,1039.86,90.15Z"/><path class="cls-21" d="M1020.34,73.92a19.79,19.79,0,0,0-3.12-1.48,18.75,18.75,0,0,1-1.46,3.11,19.21,19.21,0,0,1-23.4,7.94,19.45,19.45,0,1,0,28-9.56Z"/><path class="cls-10" d="M1044,80.92c-1.74,8.08-9.31,13.3-16.88,11.67s-12.3-9.53-10.55-17.62,9.32-13.32,16.9-11.67S1045.73,72.83,1044,80.92Z"/><path class="cls-20" d="M1037.29,70.35c-.21-.1-.43-.21-.65-.3-1.05,2.59-3.89,5.31-7.74,7.1a23.61,23.61,0,0,1-2.8,1l-.55,2.52a7.25,7.25,0,0,0,14.15,3.07l1.24-5.69A15.45,15.45,0,0,1,1037.29,70.35Z"/><path class="cls-20" d="M1007.49,97.8s3.75,14,11,17.43,11.23,2.55,13-.26,3.34-8.74,1.93-10.64a20.15,20.15,0,0,1-3.7-7c-.74-2.58.55-6.72,2.12-9.8s4.24-2.73,2-4.82-.86-3.38-3.57-3.51-4-1.44-4.56,1.07c-1,4.56-2,11.07-5.2,13.46C1016.91,96.42,1013.92,96.81,1007.49,97.8Z"/><path class="cls-19" d="M1025.52,80.76c-1.25,4.87.4,8.4,1.58,9.57a9,9,0,0,0,3,1.64,25.41,25.41,0,0,1,1-2.92C1027.22,88.2,1024.57,84.46,1025.52,80.76Z"/><path class="cls-22" d="M1034.37,118.55c.42-8.53-.46-12.08-2.14-16.46-.44-1.15-1.58-2.31-2-3.27,2.75,17.14-9.9,9.68-14.45,1.33-2.87,2.7-13.19,4.54-13.22,5.08-.23,5.93.08,11.86-.1,17.79a9.16,9.16,0,0,0,2.92,6.53,6.48,6.48,0,0,0-.25,1.45l-.32,2.88c-.09,2.37-4.91,10.46-3.27,10.57l23.8,1.28c1.63.12,3.77-4.75,3.86-7.12l2.45-11.62c0-.2,0-.4,0-.6A13.23,13.23,0,0,0,1034.37,118.55Z"/><path class="cls-23" d="M1015.23,96.24s-9.45-.93-11.89,3.37c-3.24,5.7-2.44,11.79-1.86,15.85.68,4.73.39,10.85,1.43,17,1.28,7.4-7,18.55-5.72,17.36.25-.24,11.17-3.59,16-5.73s2.29-11.66,1.94-14.37c-.8-6.11,4.6-18.09,3.75-23A41.64,41.64,0,0,0,1015.23,96.24Z"/><path class="cls-23" d="M1036.39,108.05c-.24-1.87-1.26-3.92-2.69-6.42a9.92,9.92,0,0,0-2.44-2.44c-1.55-1.19-1.37-1-.77.36,1.1,2.6,2.49,7.67,1.35,17.77-.33,3-3,9.81-4.38,14.33s-3.1,14-3.1,14,1.36,4.13,1.85,4.09c.77-.07,2.33-9.22,4.54-15.59C1036.06,118.88,1037.48,116.29,1036.39,108.05Z"/><path class="cls-5" d="M1008.1,97.49c1.81-.82,4.86-1.14,5.66,2.78,3.52,17.12,5.59,51,5.59,51s-1.58,1.63-5,.75c-5.79-1.49-5.8-13.56-10.85-41.33C1002.09,102.63,1005.05,98.88,1008.1,97.49Z"/><path class="cls-20" d="M1034.16,157.32s8.49,7.2,9.23,7.48,1.24,0,3-.12,2.06,0,3.42,0a13.13,13.13,0,0,1,1.54.06s-.11.76-.65.89-1.65.1-2,.2,1,0,3,.49a28.6,28.6,0,0,1,4.7,1.51c.51.22.58.27.58.29,0,.25-.09.47-.34.48s-1-.15-.94-.11a11.42,11.42,0,0,0,1.5.82,7.13,7.13,0,0,1,.67.28c.35.19.11.61-.56.7,0,0-.2.3-.4.33l-.29,0a2.28,2.28,0,0,1-.37,0,7.28,7.28,0,0,1-1.32,0,11.81,11.81,0,0,0-1.67-.25s1.14.44,1.11.53-.34.41-.55.36c-.38-.09-1-.21-2.5-.64a12.53,12.53,0,0,0-4.33-.75,4.51,4.51,0,0,1-3.67-1.47c-3.82-3.48-12.17-6.62-13.3-7.62S1034.16,157.32,1034.16,157.32Z"/><path class="cls-5" d="M1032.39,164.41c2-1.14,2.08-3.73,3.34-6.55-5.88-4.46-10.12-8.77-16.63-12.93-2.42-1.55-7.77.11-8.47,1.9-1.19,3,8.77,9.77,13.8,12.72C1027.33,161.24,1030.24,163.77,1032.39,164.41Z"/><rect class="cls-17" x="1023.92" y="169.68" width="53.72" height="1.1"/><path class="cls-17" d="M1047.63,169.61a1.47,1.47,0,0,0,1.36,1.55h27.55c.75,0,1.77-.55,2.69-2.72l13.61-24.87a1.41,1.41,0,0,0-1.25-1.56h-.33l-28.28.86a2.64,2.64,0,0,0-1.78,1.88Z"/><path class="cls-17" d="M1051,170.78h-27.17a10.08,10.08,0,0,0,4.4.85h45.27a10.08,10.08,0,0,0,4.4-.85Z"/><path class="cls-10" d="M1016,71.75c-1.75,3.08-3.07,6.71-6.13,8.5-4.6,2.69-10.73-.15-15.69,1.81a11.81,11.81,0,0,0-4.45,3.34A18.34,18.34,0,0,0,986,102.69,16.55,16.55,0,0,0,999.36,114a15.11,15.11,0,0,0,15.17-8.33c2.51-5.46,1.31-11.85,2.39-17.75.82-4.47,4.15-7.66,7.32-10.91,2.17-2.23,8.12-1.14,11.35-7.51,1.75-3.44-4.27-6.2-7.5-6.2C1021.63,63.23,1017.26,69.49,1016,71.75Z"/><path class="cls-24" d="M1030.42,82.67a1.19,1.19,0,0,1-1.11-.19c-.9-.57-2.52-3.44-.38-3.3C1030.18,79.26,1031.93,81.93,1030.42,82.67Z"/><path class="cls-24" d="M1035.22,86.38a2.12,2.12,0,0,1-1.35-.55,3.55,3.55,0,0,1-.93-1.5.12.12,0,0,1,.08-.15.12.12,0,0,1,.15.07,3.41,3.41,0,0,0,.87,1.4,1.72,1.72,0,0,0,1.48.45.12.12,0,0,1,.15.09.12.12,0,0,1-.09.14h0A1.49,1.49,0,0,1,1035.22,86.38Z"/><path class="cls-24" d="M1039.86,82.51a1.51,1.51,0,0,0-1.41.9,4.3,4.3,0,0,0-.48,1.79.66.66,0,0,0,.09.39s0,0,0,0c.33.33,1-.44,1.1-.68A7.2,7.2,0,0,0,1039.86,82.51Z"/><path class="cls-25" d="M1035.68,82.3a1.54,1.54,0,0,1-.56-.1.11.11,0,0,1,0-.12.09.09,0,0,1,.12,0,1.41,1.41,0,0,0,1.5-.34.09.09,0,0,1,.15.11l0,0A1.56,1.56,0,0,1,1035.68,82.3Z"/><path class="cls-21" d="M1040.14,75.44c-.44-.11-1.18-.17-1.3.21s.31.39.55.46a3.76,3.76,0,0,0,.74.1,3,3,0,0,1,.72.2,1.24,1.24,0,0,0,.31.1c.57,0,.14-.43,0-.57A2.31,2.31,0,0,0,1040.14,75.44Z"/><path class="cls-21" d="M1033.83,74.43a1.94,1.94,0,0,0-1.41-.29c-.33.1-.62.36-1,.35a1.27,1.27,0,0,1,.91-.68,3.89,3.89,0,0,1,1.18,0c.51.06,1.73-.08,1.75.62S1034.23,74.63,1033.83,74.43Z"/><path class="cls-25" d="M1034,77.91a.09.09,0,0,1-.08,0,1.05,1.05,0,0,0-1-.47,2,2,0,0,0-1,.26.1.1,0,0,1-.09-.17,2.18,2.18,0,0,1,1.07-.27,1.21,1.21,0,0,1,1.12.57.09.09,0,0,1,0,.12h0Z"/><path class="cls-21" d="M1033.4,78.66c-.05.35-.27.63-.5.6s-.36-.34-.31-.7.28-.63.5-.6S1033.45,78.3,1033.4,78.66Z"/><path class="cls-25" d="M1040.41,79.45a.1.1,0,0,1-.09-.06,1.14,1.14,0,0,0-1.51-.59l-.21.12a.09.09,0,0,1-.13,0,.12.12,0,0,1,0-.13,1.32,1.32,0,0,1,1.14-.2,1.29,1.29,0,0,1,.86.75.08.08,0,0,1,0,.12h0Z"/><path class="cls-21" d="M1039.4,80c-.05.36-.27.63-.5.61s-.36-.34-.31-.7.28-.63.5-.6S1039.46,79.6,1039.4,80Z"/><path class="cls-2" d="M1391.15,534.58c0,4.1-26.77,7.43-59.79,7.43s-59.79-3.32-59.79-7.43,26.77-7.43,59.79-7.43S1391.15,530.48,1391.15,534.58Z"/><path class="cls-5" d="M1308.36,487.45l-.65,8.54-7-.22s-.35-1.08-.94-1.1-1.17,1-1.84,1l-3.74-.12-14-.45s-.26-1.59.14-2.13a6.43,6.43,0,0,1,2.17-.93c3.63-1,14-4.16,15.93-7.89C1300.83,479.62,1308.36,487.45,1308.36,487.45Z"/><path class="cls-26" d="M1280.27,493.32a5.44,5.44,0,0,0,0,1.8l14,.44,3.73.12c.68,0,1.35-1,1.85-1s.94,1.1.94,1.1l7,.22.36-1.79Z"/><path class="cls-26" d="M1293.26,490.38c-.16.22-.55-.05-1.06-.5-1.23-1.11-1.12-1-.79-1.16s.51-.23,1.22.44C1293.13,489.63,1293.42,490.17,1293.26,490.38Z"/><path class="cls-26" d="M1295.17,489.53c-.16.22-.55,0-1.06-.51-1.23-1.11-1.12-1-.79-1.15s.51-.23,1.22.43C1295,488.77,1295.33,489.32,1295.17,489.53Z"/><path class="cls-26" d="M1296.93,488.55c-.16.22-.55-.05-1.06-.51-1.23-1.11-1.12-1-.79-1.16s.51-.23,1.22.44C1296.8,487.79,1297.09,488.33,1296.93,488.55Z"/><path class="cls-27" d="M1296.77,486.56l11.44.89,3.2-51.91a32.81,32.81,0,0,0-1.38-9.64L1305.84,412,1315,340.2l-32.54-11.46S1284.07,425.78,1296.77,486.56Z"/><path class="cls-5" d="M1363,497.75c.49.91.06,3,.06,3s-10.74,1-14.15,0a17,17,0,0,1-3.77-2.11c-.24-.16-.63-1.08-.86-1.24-.42-.29-.67.17-1-.1a11.8,11.8,0,0,1-1.6-1.3c-.77-5.45.55-7.6.55-7.6s7-3.12,8.6-.74C1354.66,493.24,1361.58,495.12,1363,497.75Z"/><path class="cls-26" d="M1363.48,499.23c-3.35.31-10.38.91-11.66.64-5.25-1.09-8.31-3.86-10.4-5.57a16.7,16.7,0,0,0,.24,2.23,12.09,12.09,0,0,0,1.61,1.15c.37.24.6-.17,1,.09.23.14.63,1,.87,1.1a19,19,0,0,0,3.81,1.87c3.45.9,14.29.08,14.29.08A6.54,6.54,0,0,0,1363.48,499.23Z"/><path class="cls-26" d="M1357.62,493.59c0,.23-.41.35-1,.29a17.5,17.5,0,0,0-3.69.09c-.62.07-1.13,0-1.15-.28s.47-.55,1.07-.62a17,17,0,0,1,3.64-.05C1357.08,493.08,1357.58,493.36,1357.62,493.59Z"/><path class="cls-26" d="M1355.61,491.91c0,.24-.42.41-1,.41a17.24,17.24,0,0,0-3.65.42c-.6.14-1.11.08-1.12-.18s.47-.61,1.07-.74a17.57,17.57,0,0,1,3.61-.38C1355.09,491.44,1355.58,491.68,1355.61,491.91Z"/><path class="cls-26" d="M1353.66,490.38c0,.24-.43.45-1,.51a18,18,0,0,0-3.61.76c-.59.18-1.09.16-1.09-.1s.47-.67,1.06-.85a17.46,17.46,0,0,1,3.58-.71C1353.15,489.94,1353.63,490.13,1353.66,490.38Z"/><path class="cls-28" d="M1312.24,339.73l-2.35-1.79-27.47-9.2s0,4.38.63,19.78L1312,371.84Z"/><path class="cls-28" d="M1325,344.36l27.74,144.35-10.5-.35s-19.3-35.74-21.12-60.21a56.7,56.7,0,0,0-6.28-22.2c-14.88-28.35-25.18-74.13-25.18-74.13Z"/><path class="cls-20" d="M1274.09,324.37c-.58.18-2.5,1-5.17,4.3-2.4,3-5.58,10.6-7.82,7.22.42-4.12.41-9,.41-9,.5-2.47,3.65-5.3,5.94-6.7l7.57-3.44s3.64,1.73,3.83,1.78l-.37,1.72A19.53,19.53,0,0,0,1274.09,324.37Z"/><path class="cls-20" d="M1272,324.51a3.21,3.21,0,0,0-.61.09c.11-.53.2-1.06.26-1.59,1.08-1.68,2.1-3.39,3.16-5.08.88.75,2.12,1.79,2.22,1.85l-4.71,12.44s-1.72.1-1.6-2.68A13.26,13.26,0,0,1,1272,324.51Z"/><path class="cls-29" d="M1309.64,299.35s-14.89-2.2-19.08.89-19.29,15.37-19.29,15.37l7.15,6.74s32-16.88,33.74-19.47S1310.52,299.61,1309.64,299.35Z"/><path class="cls-23" d="M1333.35,263s-17.39-9.52-29.8,11-23.17,61.62-23.17,61.62l45.91,9.46,7.94-58.91S1340.05,266.08,1333.35,263Z"/><path class="cls-30" d="M1257.67,242.57l.68,17.3,5.24,4.3Z"/><path class="cls-31" d="M1257.67,242.57l12.25,17.05-1.87,3.64-4.73-.06Z"/><path class="cls-32" d="M1257.67,242.57l13.46,11.93,1.49,1.69-2.7,3.43Z"/><path class="cls-33" d="M1326.59,369.41l-5.28-11.07-3.2,1.52,4.31,9.05,1,2,1,2C1326.07,371.62,1327,370.26,1326.59,369.41Z"/><path class="cls-34" d="M1317,376.47l-1-2-1-2-4.31-9-3.2,1.53,5.28,11.07C1313.21,376.83,1314.85,377,1317,376.47Z"/><path class="cls-22" d="M1320.84,375.09a19.55,19.55,0,0,0,3.51-2.13l-1-2-1-2-4.31-9.05-7.37,3.52,4.3,9,1,2,1,2A19.37,19.37,0,0,0,1320.84,375.09Z"/><path class="cls-35" d="M1258.7,251.07c.8-.28.19-3.18.85-3.93a.7.7,0,0,1,.19-.15.69.69,0,0,1,.2,0c.92,0,2.25,2.38,3,2,.31-.14.43-.74.4-1.44l-5.64-5,.33,8.17S1258.48,251.15,1258.7,251.07Z"/><path class="cls-33" d="M1270,254.56c-.6.43-.43,1.74-.26,3a8.42,8.42,0,0,1,.14,2.07l.78,1.15.57.84,41.79,87.67,3.2-1.53-43.14-90.5-.51-1.06-1.49-1.69A1.24,1.24,0,0,0,1270,254.56Z"/><rect class="cls-36" x="1315.41" y="347.95" width="3.55" height="11.72" transform="translate(-24.16 600.67) rotate(-25.46)"/><rect class="cls-37" x="1304.83" y="352.99" width="3.55" height="11.72" transform="translate(-27.25 597.21) rotate(-25.49)"/><path class="cls-34" d="M1305.69,352.8l-41.8-87.67,0-.13-.54-1.8a6.58,6.58,0,0,1-1.74-1.75c-.92-1.13-1.9-2.35-2.6-2.2a1,1,0,0,0-.62.62l.49,2.89,1.3,2.73,42.34,88.83Z"/><path class="cls-22" d="M1271.27,261.61l-.57-.84-.78-1.15a.71.71,0,0,1-.28.49c-.47.25-1.29-.52-2.17-1.46a13.81,13.81,0,0,0-2.77-2.63.61.61,0,0,0-.85.1.65.65,0,0,0-.12.36,13.81,13.81,0,0,0,.21,3.85c.18,1.44.28,2.73-.25,2.91a.5.5,0,0,1-.38,0l.55,1.8,0,.13,41.8,87.67,7.37-3.52Z"/><rect class="cls-38" x="1307.81" y="350.47" width="8.17" height="11.72" transform="translate(-25.65 599.24) rotate(-25.49)"/><path class="cls-5" d="M1333.58,263.78s4.94-1,4.5,14.32-2.4,45.38-4,53c-.4,1.9-1.83,10.72-6.26,6s-9.25-24.46-5.6-51C1324.58,269.08,1331,264.07,1333.58,263.78Z"/><path class="cls-5" d="M1331.1,334.26s-3.64-14.66-7.89-17S1302.73,307,1302.73,307l-3.16,9.77S1326.11,338,1329,338.26,1331.2,335.19,1331.1,334.26Z"/><path class="cls-20" d="M1302.47,306.86l-9.84-4.32-4-.83,1.63,3.81-3.49,1.75-3.8-.93-5-1.6,1,3.67a5,5,0,0,0,1.43,2.09c1.09,1,6.84,5.14,6.84,5.14l2.61-.83,5.9-2.3L1300,315Z"/><path class="cls-19" d="M1325.42,249.39l-.54-2.65-7.7,5.33.12,3.48a17.14,17.14,0,0,0,4.56-1.53A8.77,8.77,0,0,0,1325.42,249.39Z"/><path class="cls-20" d="M1312.4,253.9a6.1,6.1,0,0,1-3.32-1c-3.74-6,1.55-21.54,1.55-21.54l6.54-2.4,7.92,5.45,0,10.57a8.59,8.59,0,0,1-4,7.1h0A16.74,16.74,0,0,1,1312.4,253.9Z"/><path class="cls-20" d="M1312.4,253.9a6.1,6.1,0,0,1-3.32-1c-3.74-6,1.55-21.54,1.55-21.54l6.54-2.4,7.92,5.45,0,10.57a8.59,8.59,0,0,1-4,7.1h0A16.74,16.74,0,0,1,1312.4,253.9Z"/><path class="cls-19" d="M1316.83,245.22a1.13,1.13,0,0,0,1.06.2c1-.21,3.44-2.28,1.45-2.87C1318.18,242.21,1315.7,244.05,1316.83,245.22Z"/><path class="cls-19" d="M1308.94,243.22a3.64,3.64,0,0,1-.16,1.79.69.69,0,0,1-.21.32.46.46,0,0,1-.59-.16,1.18,1.18,0,0,1-.17-.64c0-.46-.12-1.61.28-2S1308.87,242.76,1308.94,243.22Z"/><path class="cls-28" d="M1310.43,235.41a1.48,1.48,0,0,1,1.1.63.76.76,0,0,1-.65.24,5.47,5.47,0,0,1-.7-.16,2.92,2.92,0,0,0-.72-.06,1.15,1.15,0,0,1-.32,0c-.52-.16,0-.44.18-.52A2.32,2.32,0,0,1,1310.43,235.41Z"/><path class="cls-28" d="M1310.73,239.18a.15.15,0,0,1-.12-.07A1.06,1.06,0,0,0,1309,239a.15.15,0,0,1-.21,0,.14.14,0,0,1,0-.2,1.34,1.34,0,0,1,1.9-.05,1.3,1.3,0,0,1,.19.22.14.14,0,0,1,0,.2A.11.11,0,0,1,1310.73,239.18Z"/><path class="cls-28" d="M1316.48,236.61a1.86,1.86,0,0,1,1.38.21c.26.2.44.53.75.64a1.22,1.22,0,0,0-.6-.93,3.61,3.61,0,0,0-1.07-.39c-.48-.12-1.54-.65-1.79,0S1316.05,236.66,1316.48,236.61Z"/><path class="cls-28" d="M1317.13,240.22a.15.15,0,0,1-.11,0,1.86,1.86,0,0,0-.78-.55,1,1,0,0,0-1,.09.15.15,0,0,1-.21,0,.14.14,0,0,1,0-.2,1.24,1.24,0,0,1,1.27-.15,2.24,2.24,0,0,1,.9.62.16.16,0,0,1,0,.21A.14.14,0,0,1,1317.13,240.22Z"/><path class="cls-28" d="M1312,244.47a1.55,1.55,0,0,1-1.42-.95.14.14,0,0,1,.06-.19.15.15,0,0,1,.2.06v0a1.31,1.31,0,0,0,1.18.77h0a.15.15,0,0,1,.15.15.15.15,0,0,1-.15.14Z"/><path class="cls-19" d="M1311.86,249.54a1.81,1.81,0,0,1-1-.27.16.16,0,0,1,0-.2.15.15,0,0,1,.2,0,1.65,1.65,0,0,0,1.47.09,3.22,3.22,0,0,0,1.24-1,.15.15,0,1,1,.23.19,3.52,3.52,0,0,1-1.36,1.06A2.12,2.12,0,0,1,1311.86,249.54Z"/><path class="cls-20" d="M1328.5,264.27l-3.08-14.88a8.77,8.77,0,0,1-3.56,4.63,17.14,17.14,0,0,1-4.56,1.53l.25,7.74Z"/><path class="cls-28" d="M1323.53,240.37c-.37-1.79,0-5.86-1.76-5.65-1.33.15-5.85.13-7.36.06-3.62-.17-10-1.88-9.74-7.38.12-2.75,2.9-5,4.62-5.62a7.31,7.31,0,0,1,5.23.17c3.92,1.58,9.06,4.89,11.18,4.56,3.58-.55,7,1.69,6.83,4.7-.2,3.22-2.1,8-3.83,11a16.76,16.76,0,0,1-3.82,4.56h0Z"/><path class="cls-20" d="M1327.18,240.94a2.74,2.74,0,0,0-3.39.15c-1.09.82-1.35,2.1-.58,2.85a2.72,2.72,0,0,0,3.38-.14C1327.69,243,1328,241.69,1327.18,240.94Z"/><path class="cls-3" d="M1337.41,22.11c3,.44,5.8,1.85,8.82,2.17,8.77.91,15.46-7.12,21.87-13.18,9.9-9.35,25.73-15.23,37-7.6,4.84,3.28,8,8.45,11.69,12.94s8.84,8.62,14.67,8.37c4.08-.17,7.72-2.46,11.59-3.79,14.09-4.84,29.23,5.59,31.21,20.35H1322C1322.51,31.94,1324.32,20.18,1337.41,22.11Z"/><rect class="cls-10" x="1060.97" y="20.43" width="49.56" height="29.05" rx="2.9"/><path class="cls-10" d="M1092,48.13v9.31a1.74,1.74,0,0,0,3,1.23l10.54-10.54Z"/><path class="cls-3" d="M1236.43,38.67h-50a2.7,2.7,0,0,1-2.7-2.7h0a2.7,2.7,0,0,1,2.7-2.7h50a2.7,2.7,0,0,1,2.7,2.7h0a2.7,2.7,0,0,1-2.7,2.7Z"/><path class="cls-3" d="M1236.43,50.16h-50a2.7,2.7,0,0,1-2.7-2.7h0a2.7,2.7,0,0,1,2.7-2.7h50a2.7,2.7,0,0,1,2.7,2.7h0a2.7,2.7,0,0,1-2.7,2.7Z"/><path class="cls-3" d="M1236.43,61.65h-50a2.7,2.7,0,0,1-2.7-2.7h0a2.7,2.7,0,0,1,2.7-2.7h50a2.7,2.7,0,0,1,2.7,2.7h0a2.7,2.7,0,0,1-2.7,2.7Z"/><path class="cls-3" d="M811,176.78H761a2.7,2.7,0,0,1-2.7-2.7h0a2.7,2.7,0,0,1,2.7-2.7h50a2.7,2.7,0,0,1,2.7,2.7h0a2.7,2.7,0,0,1-2.7,2.7Z"/><path class="cls-3" d="M811,188.26H761a2.7,2.7,0,0,1-2.7-2.7h0a2.7,2.7,0,0,1,2.7-2.7h50a2.7,2.7,0,0,1,2.7,2.7h0a2.7,2.7,0,0,1-2.7,2.7Z"/><path class="cls-3" d="M796.1,199.75H761a2.7,2.7,0,0,1-2.7-2.7h0a2.7,2.7,0,0,1,2.7-2.7H796.1a2.7,2.7,0,0,1,2.7,2.7h0a2.7,2.7,0,0,1-2.7,2.7Z"/><circle class="cls-35" cx="1173.82" cy="130.9" r="21.96"/><path class="cls-39" d="M1162.27,133.36l8.2,6.57,14.77-18.05"/><g class="cls-40"><text class="cls-41" transform="translate(1069.23 41.01)">&lt;/&gt;</text></g><path class="cls-42" d="M0,381.16c14.69,6.58,29.41,13.06,44.05,19.75,65.87,30.13,131.72,60.28,200.07,84.56,50,17.75,100.73,32.84,152.78,43.27a730.18,730.18,0,0,0,107.81,13.61A813.29,813.29,0,0,0,616,540a1331.52,1331.52,0,0,0,132.32-18.52c60.88-11.56,121.59-24.09,182.61-34.88,46.63-8.24,93.5-15.44,140.5-21.22,48.36-6,96.94-10.43,145.54-14.08,50.11-3.77,100.35-6,150.55-8.47,30.42-1.49,60.89-2.24,91.34-3,32.13-.85,64.26-1.42,96.39-2,21.81-.41,43.62-.8,65.44-1q53.73-.48,107.45-.66,93.48-.27,187-.35c1.64,0,3.29.29,4.93.45v268c-2.16,0-4.33.1-6.49.1H6.49c-2.16,0-4.33-.07-6.49-.1Z"/></g></g></svg>