<svg id="linkedin-logo" xmlns="http://www.w3.org/2000/svg" width="27" height="27" viewBox="0 0 27 27">
  <path id="Path_316" data-name="Path 316" d="M25.564,0H1.436A1.436,1.436,0,0,0,0,1.436V25.564A1.436,1.436,0,0,0,1.436,27H25.564A1.436,1.436,0,0,0,27,25.564V1.436A1.436,1.436,0,0,0,25.564,0ZM7.587,24.185H3.15V9.91H7.587V24.185ZM5.369,7.959A2.572,2.572,0,1,1,7.94,5.386,2.573,2.573,0,0,1,5.369,7.959ZM24.2,24.185H19.771V17.244c0-1.656-.03-3.785-2.306-3.785-2.307,0-2.662,1.8-2.662,3.665v7.062H10.369V9.91h4.256v1.95h.059a4.663,4.663,0,0,1,4.2-2.306c4.493,0,5.322,2.957,5.322,6.8v7.83Z" fill="#f9f9f9"/>
</svg>
