<svg xmlns="http://www.w3.org/2000/svg" width="260" height="39.999" viewBox="0 0 260 39.999">
  <g id="Logo" transform="translate(-137.617 -266.997)">
    <g id="Group_4" data-name="Group 4" transform="translate(170.352 269.412)">
      <path id="Path_1" data-name="Path 1" d="M184.013,311.934V286.049h5.6v25.884Z" transform="translate(-184.013 -275.022)" fill="#1b1f26"/>
      <path id="Path_2" data-name="Path 2" d="M213.664,285.1a9.56,9.56,0,0,1,7.205,2.848,10.785,10.785,0,0,1,2.748,7.817v15.893h-5.6V296.329a6.02,6.02,0,0,0-1.556-4.452,5.749,5.749,0,0,0-4.251-1.553,6.407,6.407,0,0,0-4.77,1.838q-1.814,1.838-1.813,5.617v13.874h-5.6V285.768h5.6v3.313Q208.167,285.1,213.664,285.1Z" transform="translate(-188.729 -274.741)" fill="#1b1f26"/>
      <path id="Path_3" data-name="Path 3" d="M254.37,288.408h-6.428v12.425a3.093,3.093,0,0,0,.725,2.3,3.258,3.258,0,0,0,2.152.777,35.3,35.3,0,0,0,3.55-.026v5.021q-6.428.777-9.227-1.113t-2.8-6.963V288.408h-4.769v-5.384h4.769v-5.591l5.6-1.657v7.248h6.428Z" transform="translate(-199.784 -271.997)" fill="#1b1f26"/>
      <path id="Path_4" data-name="Path 4" d="M269.81,301.092a7.105,7.105,0,0,0,2.852,4.53A9.167,9.167,0,0,0,278.1,307.2a7.6,7.6,0,0,0,6.687-3.21l4.614,2.692q-3.837,5.643-11.353,5.642a13.868,13.868,0,0,1-10.212-3.857,13.169,13.169,0,0,1-3.888-9.758A13.243,13.243,0,0,1,277.638,285.1a12.125,12.125,0,0,1,9.356,3.986,13.81,13.81,0,0,1,3.656,9.681,17.408,17.408,0,0,1-.208,2.33Zm-.052-4.556H285a7.471,7.471,0,0,0-2.618-4.763,7.555,7.555,0,0,0-4.8-1.6,7.882,7.882,0,0,0-5.184,1.708A7.706,7.706,0,0,0,269.758,296.536Z" transform="translate(-207.551 -274.741)" fill="#1b1f26"/>
      <path id="Path_5" data-name="Path 5" d="M313.267,290.2q2.125-4.815,7.984-4.815v6.058a8.31,8.31,0,0,0-5.6,1.527q-2.384,1.735-2.385,5.721v13.046h-5.6V285.854h5.6Z" transform="translate(-220.423 -274.827)" fill="#1b1f26"/>
      <path id="Path_6" data-name="Path 6" d="M345.327,285.1a9.559,9.559,0,0,1,7.205,2.848,10.782,10.782,0,0,1,2.748,7.817v15.893h-5.6V296.329a6.02,6.02,0,0,0-1.556-4.452,5.749,5.749,0,0,0-4.251-1.553,6.4,6.4,0,0,0-4.769,1.838q-1.815,1.838-1.814,5.617v13.874h-5.6V285.768h5.6v3.313Q339.831,285.1,345.327,285.1Z" transform="translate(-227.497 -274.741)" fill="#1b1f26"/>
      <path id="Path_7" data-name="Path 7" d="M384.174,312.326a13.617,13.617,0,1,1,0-27.231,13.448,13.448,0,0,1,6.895,1.812,11.719,11.719,0,0,1,4.666,4.866l-4.821,2.8a6.633,6.633,0,0,0-2.67-2.925,7.928,7.928,0,0,0-4.121-1.061,7.738,7.738,0,0,0-5.728,2.33,8.441,8.441,0,0,0,0,11.6,7.738,7.738,0,0,0,5.728,2.329,7.954,7.954,0,0,0,4.121-1.087,7.1,7.1,0,0,0,2.773-2.9l4.822,2.743a12.323,12.323,0,0,1-4.77,4.918A13.448,13.448,0,0,1,384.174,312.326Z" transform="translate(-238.92 -274.741)" fill="#f57a44"/>
      <path id="Path_8" data-name="Path 8" d="M424.679,281.055a9.56,9.56,0,0,1,7.206,2.848,10.782,10.782,0,0,1,2.748,7.817v15.893h-5.6V292.289a6.019,6.019,0,0,0-1.556-4.452,5.75,5.75,0,0,0-4.251-1.553,6.4,6.4,0,0,0-4.769,1.838q-1.815,1.838-1.815,5.617v13.874h-5.6V271.374h5.6v13.667Q419.185,281.056,424.679,281.055Z" transform="translate(-250.862 -270.701)" fill="#f57a44"/>
      <path id="Path_9" data-name="Path 9" d="M471.82,285.768h5.6v25.885h-5.6v-3.727a10.493,10.493,0,0,1-9.072,4.4,12.163,12.163,0,0,1-9.124-3.96,14.241,14.241,0,0,1,0-19.336,12.2,12.2,0,0,1,9.124-3.934,10.536,10.536,0,0,1,9.072,4.349Zm-14.048,18.87a8.462,8.462,0,0,0,11.715,0,8.7,8.7,0,0,0,0-11.855,8.46,8.46,0,0,0-11.715,0,8.7,8.7,0,0,0,0,11.855Z" transform="translate(-262.284 -274.741)" fill="#f57a44"/>
      <path id="Path_10" data-name="Path 10" d="M502.073,276.5a3.528,3.528,0,1,1,1.063-2.511A3.442,3.442,0,0,1,502.073,276.5Zm-5.314,30.828V281.447h5.6v25.885Z" transform="translate(-275.87 -270.42)" fill="#f57a44"/>
    </g>
    <rect id="Rectangle_16" data-name="Rectangle 16" width="9.842" height="9.828" transform="translate(176.983 276.826) rotate(180)" fill="#f57a44"/>
    <rect id="Rectangle_17" data-name="Rectangle 17" width="9.842" height="9.828" transform="translate(167.142 286.654) rotate(180)" fill="#efc914"/>
    <rect id="Rectangle_18" data-name="Rectangle 18" width="9.842" height="9.828" transform="translate(157.3 296.482) rotate(180)" fill="#418deb"/>
    <rect id="Rectangle_19" data-name="Rectangle 19" width="9.842" height="9.828" transform="translate(147.459 306.31) rotate(180)" fill="#094798"/>
  </g>
</svg>
