<svg id="Layer_1" data-name="Layer 1" xmlns="http://www.w3.org/2000/svg" viewBox="0 0 1920 337"><defs><style>.cls-1{fill:#f7f7f7;}</style></defs><title>Wave</title><path class="cls-1" d="M1,4c5.17,2.21,10.4,4.3,15.51,6.64C81.41,40.31,145.89,71,212.62,96.44c53.67,20.49,108.27,38,164.33,50.83a748,748,0,0,0,223.36,16.61c60.54-4.49,120.35-13.95,179.9-25.41,61.44-11.83,122.77-24.31,184.44-34.82q70.13-11.94,141-19.45c54-5.8,108.13-10.07,162.3-13.66,47.54-3.15,95.17-5.37,142.8-6.36q167.41-3.48,334.87-5.27c56.15-.7,112.31-.32,168.47-.45,2.31,0,4.63-.3,6.94-.46V337H1Z"/></svg>