<svg xmlns="http://www.w3.org/2000/svg" width="45" height="45" viewBox="0 0 45 45">
  <g id="Home" transform="translate(-755 -30)">
    <path id="Path_289" data-name="Path 289" d="M38.14,57.676H27.074a1.359,1.359,0,0,1-1.323-1.392V44.509h-6.5V56.284a1.359,1.359,0,0,1-1.323,1.392H6.857a1.359,1.359,0,0,1-1.323-1.392V36.891H2.309A2.3,2.3,0,0,1,.157,35.34a2.5,2.5,0,0,1,.6-2.671l20.19-19.355a2.214,2.214,0,0,1,3.108,0l4.591,4.4v-.774a1.359,1.359,0,0,1,1.323-1.392h9.151a1.359,1.359,0,0,1,1.323,1.392V29.025l3.8,3.644a2.5,2.5,0,0,1,.6,2.671,2.3,2.3,0,0,1-2.152,1.551H39.464V56.284A1.359,1.359,0,0,1,38.14,57.676Z" transform="translate(755.001 17.324)" fill="#e3eaf2"/>
    <path id="Path_290" data-name="Path 290" d="M278.957,32.669l-4.014-3.644V16.94a1.4,1.4,0,0,0-1.4-1.392h-9.663a1.4,1.4,0,0,0-1.4,1.392v.774l-4.848-4.4A2.435,2.435,0,0,0,256,12.676V44.509h3.434V56.284a1.4,1.4,0,0,0,1.4,1.392h11.685a1.4,1.4,0,0,0,1.4-1.392V36.891h3.406a2.427,2.427,0,0,0,1.641-4.222Z" transform="translate(520.244 17.324)" fill="#e3eaf2"/>
  </g>
</svg>
